<?xml version="1.0" encoding="UTF-8"?>
<svg id="a_la_coque" data-name="a la coque" xmlns="http://www.w3.org/2000/svg" viewBox="0 0 128 128">
  <defs>
    <style>
      .cls-1 {
        fill: #844024;
      }

      .cls-2 {
        fill: #7b3d27;
      }

      .cls-3 {
        fill: #f49f5b;
      }

      .cls-4 {
        fill: #430602;
      }

      .cls-5 {
        fill: #e9d2b3;
      }

      .cls-6 {
        fill: #f29246;
      }

      .cls-7 {
        fill: #844025;
      }

      .cls-8 {
        fill: #463634;
      }

      .cls-9 {
        fill: #edb07e;
      }

      .cls-10 {
        fill: #440d08;
      }

      .cls-11 {
        fill: #804026;
      }

      .cls-12 {
        fill: #813f26;
      }

      .cls-13 {
        fill: #b1522b;
      }

      .cls-14 {
        fill: #471a11;
      }

      .cls-15 {
        fill: #4e2822;
      }

      .cls-16 {
        fill: #fdf4b6;
      }

      .cls-17 {
        fill: #834026;
      }

      .cls-18 {
        fill: #8b452a;
      }

      .cls-19 {
        fill: #1b090a;
      }

      .cls-20 {
        fill: #90472b;
      }

      .cls-21 {
        fill: #200100;
      }

      .cls-22 {
        fill: #572417;
      }

      .cls-23 {
        fill: #eea16c;
      }

      .cls-24 {
        fill: #fde1a1;
      }

      .cls-25 {
        fill: #260100;
      }

      .cls-26 {
        fill: #410702;
      }

      .cls-27 {
        fill: #fcf9e2;
      }

      .cls-28 {
        fill: #ecab79;
      }

      .cls-29 {
        fill: #fbe5a6;
      }

      .cls-30 {
        fill: #f2af7b;
      }

      .cls-31 {
        fill: #814329;
      }

      .cls-32 {
        fill: #f9a154;
      }

      .cls-33 {
        fill: #4a120a;
      }

      .cls-34 {
        fill: #844027;
      }

      .cls-35 {
        fill: #844427;
      }

      .cls-36 {
        fill: #f2a059;
      }

      .cls-37 {
        fill: #ec9c65;
      }

      .cls-38 {
        fill: #86472d;
      }

      .cls-39 {
        fill: #feb85f;
      }

      .cls-40 {
        fill: #f49c50;
      }

      .cls-41 {
        fill: #f49344;
      }

      .cls-42 {
        fill: #854024;
      }

      .cls-43 {
        fill: #f5d2a4;
      }

      .cls-44 {
        fill: #482e2b;
      }

      .cls-45 {
        fill: #fef3b3;
      }

      .cls-46 {
        fill: #fbd97b;
      }

      .cls-47 {
        fill: #eda26e;
      }

      .cls-48 {
        fill: #1e090a;
      }

      .cls-49 {
        fill: #864b2f;
      }

      .cls-50 {
        fill: #fceac0;
      }

      .cls-51 {
        fill: #fdf0b2;
      }

      .cls-52 {
        fill: #fbe6be;
      }

      .cls-53 {
        fill: #32110d;
      }

      .cls-54 {
        fill: #150709;
      }

      .cls-55 {
        fill: #f5d5a7;
      }

      .cls-56 {
        fill: #f0733c;
      }

      .cls-57 {
        fill: #1c1012;
      }

      .cls-58 {
        fill: #89462b;
      }

      .cls-59 {
        fill: #f18445;
      }

      .cls-60 {
        fill: #e8dac9;
      }

      .cls-61 {
        fill: #fed272;
      }

      .cls-62 {
        fill: #3e0a05;
      }

      .cls-63 {
        fill: #feb55c;
      }

      .cls-64 {
        fill: #aa4a24;
      }

      .cls-65 {
        fill: #350f0d;
      }

      .cls-66 {
        fill: #fce6be;
      }

      .cls-67 {
        fill: #f2793e;
      }

      .cls-68 {
        fill: #f6cea1;
      }

      .cls-69 {
        fill: #4d2017;
      }

      .cls-70 {
        fill: #b86138;
      }

      .cls-71 {
        fill: #3d0601;
      }

      .cls-72 {
        fill: #fcf2cc;
      }

      .cls-73 {
        fill: #f7b374;
      }

      .cls-74 {
        fill: #4b170f;
      }

      .cls-75 {
        fill: #eda06a;
      }

      .cls-76 {
        fill: #fce5bc;
      }

      .cls-77 {
        fill: #140203;
      }

      .cls-78 {
        fill: #844528;
      }

      .cls-79 {
        fill: #8f482c;
      }

      .cls-80 {
        fill: #9c4a2a;
      }

      .cls-81 {
        fill: #f4994f;
      }

      .cls-82 {
        fill: #fde57f;
      }

      .cls-83 {
        fill: #813f25;
      }

      .cls-84 {
        fill: #1b0101;
      }

      .cls-85 {
        fill: #f1e3a8;
      }

      .cls-86 {
        fill: #8b492c;
      }

      .cls-87 {
        fill: #814728;
      }

      .cls-88 {
        fill: #3d120d;
      }

      .cls-89 {
        fill: #7b3a20;
      }

      .cls-90 {
        fill: #642c1c;
      }

      .cls-91 {
        fill: #f3b27e;
      }

      .cls-92 {
        fill: #2b1a1c;
      }

      .cls-93 {
        fill: #fdf6d4;
      }

      .cls-94 {
        fill: #fab767;
      }

      .cls-95 {
        fill: #f28547;
      }

      .cls-96 {
        fill: #1d0909;
      }

      .cls-97 {
        fill: #f5cfa2;
      }

      .cls-98 {
        fill: #f0dea2;
      }

      .cls-99 {
        fill: #fdf7b8;
      }

      .cls-100 {
        fill: #2d0f0f;
      }

      .cls-101 {
        fill: #874226;
      }

      .cls-102 {
        fill: #f38532;
      }

      .cls-103 {
        fill: #7b3a21;
      }

      .cls-104 {
        fill: #49231e;
      }

      .cls-105 {
        fill: #441f19;
      }

      .cls-106 {
        fill: #f8a960;
      }

      .cls-107 {
        fill: #6d4035;
      }

      .cls-108 {
        fill: #1e0a0a;
      }

      .cls-109 {
        fill: #86472b;
      }

      .cls-110 {
        fill: #854429;
      }

      .cls-111 {
        fill: #8a4628;
      }

      .cls-112 {
        fill: #fab866;
      }

      .cls-113 {
        fill: #f4b27a;
      }

      .cls-114 {
        fill: #fddc9d;
      }

      .cls-115 {
        fill: #f5d3a8;
      }

      .cls-116 {
        fill: #fce386;
      }

      .cls-117 {
        fill: #fce4b8;
      }

      .cls-118 {
        fill: #291211;
      }

      .cls-119 {
        fill: #974e2f;
      }

      .cls-120 {
        fill: #330101;
      }

      .cls-121 {
        fill: #90492b;
      }

      .cls-122 {
        fill: #4c0b03;
      }

      .cls-123 {
        fill: #2f0102;
      }

      .cls-124 {
        fill: #fddc7f;
      }

      .cls-125 {
        fill: #fce7ab;
      }

      .cls-126 {
        fill: #483232;
      }

      .cls-127 {
        fill: #360a09;
      }

      .cls-128 {
        fill: #1f0608;
      }

      .cls-129 {
        fill: #fcdd9f;
      }

      .cls-130 {
        fill: #854428;
      }

      .cls-131 {
        fill: #83442a;
      }

      .cls-132 {
        fill: #291212;
      }

      .cls-133 {
        fill: #fdc768;
      }

      .cls-134 {
        fill: #fefdec;
      }

      .cls-135 {
        fill: #86482e;
      }

      .cls-136 {
        fill: #fcf6d1;
      }

      .cls-137 {
        fill: #fdca6b;
      }

      .cls-138 {
        fill: #eea06c;
      }

      .cls-139 {
        fill: #fad7a9;
      }

      .cls-140 {
        fill: #85482b;
      }

      .cls-141 {
        fill: #a54b21;
      }

      .cls-142 {
        fill: #e9915c;
      }

      .cls-143 {
        fill: #490805;
      }

      .cls-144 {
        fill: #eba46a;
      }

      .cls-145 {
        fill: #471e16;
      }

      .cls-146 {
        fill: #fcf5d1;
      }

      .cls-147 {
        fill: #500c04;
      }

      .cls-148 {
        fill: #fcfef3;
      }

      .cls-149 {
        fill: #682f1e;
      }

      .cls-150 {
        fill: #f5964b;
      }

      .cls-151 {
        fill: #f4974b;
      }

      .cls-152 {
        fill: #390b05;
      }

      .cls-153 {
        fill: #e8a877;
      }

      .cls-154 {
        fill: #f18346;
      }

      .cls-155 {
        fill: #400501;
      }

      .cls-156 {
        fill: #7a3920;
      }

      .cls-157 {
        fill: #f18446;
      }

      .cls-158 {
        fill: #fde887;
      }

      .cls-159 {
        fill: #8f472b;
      }

      .cls-160 {
        fill: #93492b;
      }

      .cls-161 {
        fill: #f19b57;
      }

      .cls-162 {
        fill: #320505;
      }

      .cls-163 {
        fill: #260c0c;
      }

      .cls-164 {
        fill: #864126;
      }

      .cls-165 {
        fill: #400b05;
      }

      .cls-166 {
        fill: #f3a15a;
      }

      .cls-167 {
        fill: #410301;
      }

      .cls-168 {
        fill: #f9dab2;
      }

      .cls-169 {
        fill: #eb9860;
      }

      .cls-170 {
        fill: #8a331d;
      }

      .cls-171 {
        fill: #43221e;
      }

      .cls-172 {
        fill: #fdc86e;
      }

      .cls-173 {
        fill: #f68b4a;
      }

      .cls-174 {
        fill: #1d0a0c;
      }

      .cls-175 {
        fill: #fefae1;
      }

      .cls-176 {
        fill: #e48649;
      }

      .cls-177 {
        fill: #230d0c;
      }

      .cls-178 {
        fill: #44231e;
      }

      .cls-179 {
        fill: #913a20;
      }

      .cls-180 {
        fill: #4a0401;
      }

      .cls-181 {
        fill: #280302;
      }

      .cls-182 {
        fill: #fdf8d0;
      }

      .cls-183 {
        fill: #e4804c;
      }

      .cls-184 {
        fill: #fae3b8;
      }

      .cls-185 {
        fill: #381c19;
      }

      .cls-186 {
        fill: #270d10;
      }

      .cls-187 {
        fill: #0d0307;
      }

      .cls-188 {
        fill: #fad7aa;
      }

      .cls-189 {
        fill: #340402;
      }

      .cls-190 {
        fill: #eea878;
      }

      .cls-191 {
        fill: #240204;
      }

      .cls-192 {
        fill: #fbe7bb;
      }

      .cls-193 {
        fill: #602213;
      }

      .cls-194 {
        fill: #2e0001;
      }

      .cls-195 {
        fill: #2b0301;
      }

      .cls-196 {
        fill: #fdf4b7;
      }

      .cls-197 {
        fill: #fdf8ba;
      }

      .cls-198 {
        fill: #fdf1c8;
      }

      .cls-199 {
        fill: #f2773d;
      }

      .cls-200 {
        fill: #90492a;
      }

      .cls-201 {
        fill: #8b3c1d;
      }

      .cls-202 {
        fill: #994e2e;
      }

      .cls-203 {
        fill: #fadbb2;
      }

      .cls-204 {
        fill: #924a2a;
      }

      .cls-205 {
        fill: #6d3321;
      }

      .cls-206 {
        fill: #fdc16c;
      }

      .cls-207 {
        fill: #ecaa79;
      }

      .cls-208 {
        fill: #7a3a21;
      }

      .cls-209 {
        fill: #3e0601;
      }

      .cls-210 {
        fill: #9e4424;
      }

      .cls-211 {
        fill: #590c02;
      }

      .cls-212 {
        fill: #4c160b;
      }

      .cls-213 {
        fill: #814126;
      }

      .cls-214 {
        fill: #fdf4b5;
      }

      .cls-215 {
        fill: #360200;
      }

      .cls-216 {
        fill: #7f3e25;
      }

      .cls-217 {
        fill: #270100;
      }

      .cls-218 {
        fill: #9c3f20;
      }

      .cls-219 {
        fill: #a7562e;
      }

      .cls-220 {
        fill: #261110;
      }

      .cls-221 {
        fill: #f2b583;
      }

      .cls-222 {
        fill: #e79255;
      }

      .cls-223 {
        fill: #f4cfa3;
      }

      .cls-224 {
        fill: #a64f2b;
      }

      .cls-225 {
        fill: #371c19;
      }

      .cls-226 {
        fill: #462824;
      }

      .cls-227 {
        fill: #78240a;
      }

      .cls-228 {
        fill: #1e0102;
      }

      .cls-229 {
        fill: #291715;
      }

      .cls-230 {
        fill: #552d25;
      }

      .cls-231 {
        fill: #1f0507;
      }

      .cls-232 {
        fill: #854328;
      }

      .cls-233 {
        fill: #864629;
      }

      .cls-234 {
        fill: #4e130b;
      }

      .cls-235 {
        fill: #f28f40;
      }

      .cls-236 {
        fill: #faa153;
      }

      .cls-237 {
        fill: #f9b563;
      }

      .cls-238 {
        fill: #eeae7c;
      }

      .cls-239 {
        fill: #90482b;
      }

      .cls-240 {
        fill: #5c2a19;
      }

      .cls-241 {
        fill: #eea570;
      }

      .cls-242 {
        fill: #fcf9c3;
      }

      .cls-243 {
        fill: #62423c;
      }

      .cls-244 {
        fill: #f28f3f;
      }

      .cls-245 {
        fill: #fcf0c4;
      }

      .cls-246 {
        fill: #edad7b;
      }

      .cls-247 {
        fill: #1a0707;
      }

      .cls-248 {
        fill: #f3a059;
      }

      .cls-249 {
        fill: #3d0300;
      }

      .cls-250 {
        fill: #7f4028;
      }

      .cls-251 {
        fill: #110609;
      }

      .cls-252 {
        fill: #30110f;
      }

      .cls-253 {
        fill: #3d0803;
      }

      .cls-254 {
        fill: #2e0f11;
      }

      .cls-255 {
        fill: #420401;
      }

      .cls-256 {
        fill: #fcf089;
      }

      .cls-257 {
        fill: #f3a758;
      }

      .cls-258 {
        fill: #110708;
      }

      .cls-259 {
        fill: #fdbf62;
      }

      .cls-260 {
        fill: #230101;
      }

      .cls-261 {
        fill: #4a0802;
      }

      .cls-262 {
        fill: #7a3921;
      }

      .cls-263 {
        fill: #611508;
      }

      .cls-264 {
        fill: #feb65f;
      }

      .cls-265 {
        fill: #f5dfbd;
      }

      .cls-266 {
        fill: #8e492a;
      }

      .cls-267 {
        fill: #fdb35d;
      }

      .cls-268 {
        fill: #e69861;
      }

      .cls-269 {
        fill: #340601;
      }

      .cls-270 {
        fill: #170709;
      }

      .cls-271 {
        fill: #8a331a;
      }

      .cls-272 {
        fill: #f28647;
      }

      .cls-273 {
        fill: #fee17f;
      }

      .cls-274 {
        fill: #220101;
      }

      .cls-275 {
        fill: #290100;
      }

      .cls-276 {
        fill: #fcfbe2;
      }

      .cls-277 {
        fill: #813e24;
      }

      .cls-278 {
        fill: #834127;
      }

      .cls-279 {
        fill: #83452a;
      }

      .cls-280 {
        fill: #fbebaa;
      }

      .cls-281 {
        fill: #200d0e;
      }

      .cls-282 {
        fill: #f2b17d;
      }

      .cls-283 {
        fill: #f2cfa6;
      }

      .cls-284 {
        fill: #16090c;
      }

      .cls-285 {
        fill: #4b231c;
      }

      .cls-286 {
        fill: #f4d3a7;
      }

      .cls-287 {
        fill: #fcf5ce;
      }

      .cls-288 {
        fill: #180a0d;
      }

      .cls-289 {
        fill: #f9d7ad;
      }

      .cls-290 {
        fill: #1c0809;
      }

      .cls-291 {
        fill: #f28836;
      }

      .cls-292 {
        fill: #9f4424;
      }

      .cls-293 {
        fill: #f38043;
      }

      .cls-294 {
        fill: #874a2b;
      }

      .cls-295 {
        fill: #802811;
      }

      .cls-296 {
        fill: #faf6e5;
      }

      .cls-297 {
        fill: #f1b380;
      }

      .cls-298 {
        fill: #1c090a;
      }

      .cls-299 {
        fill: #1d0908;
      }

      .cls-300 {
        fill: #854628;
      }

      .cls-301 {
        fill: #410501;
      }

      .cls-302 {
        fill: #f5d4aa;
      }

      .cls-303 {
        fill: #fbe6a8;
      }

      .cls-304 {
        fill: #632111;
      }

      .cls-305 {
        fill: #eeac7d;
      }

      .cls-306 {
        fill: #fdef8a;
      }

      .cls-307 {
        fill: #4e0e06;
      }

      .cls-308 {
        fill: #401b15;
      }

      .cls-309 {
        fill: #4b150d;
      }

      .cls-310 {
        fill: #89472b;
      }

      .cls-311 {
        fill: #8e482a;
      }

      .cls-312 {
        fill: #2a0909;
      }

      .cls-313 {
        fill: #fcfcc0;
      }

      .cls-314 {
        fill: #fbfbe1;
      }

      .cls-315 {
        fill: #824127;
      }

      .cls-316 {
        fill: #844227;
      }

      .cls-317 {
        fill: #eead7c;
      }

      .cls-318 {
        fill: #fdfdef;
      }

      .cls-319 {
        fill: #814026;
      }

      .cls-320 {
        fill: #7b3921;
      }

      .cls-321 {
        fill: #834025;
      }

      .cls-322 {
        fill: #f9d3a3;
      }

      .cls-323 {
        fill: #380602;
      }

      .cls-324 {
        fill: #2e0502;
      }

      .cls-325 {
        fill: #582417;
      }

      .cls-326 {
        fill: #f8dfa1;
      }

      .cls-327 {
        fill: #fdfdfd;
      }

      .cls-328 {
        fill: #f8d28a;
      }
    </style>
  </defs>
  <rect class="cls-327" x="21" y="21" width="86" height="86"/>
  <path class="cls-103" d="M87.62,44.74l.05.34c-.06,4.92-.04,9.81.03,14.68.05-.05.07-.05.08,0l2.94.08c-.01.09-.11.1-.28.05l-2.57.04c.75.09,1.6.08,2.35,0,.07-.05.19-.06.25,0l.08.1c.04,4.48.04,8.95,0,13.41.07.07.08.25-.02.29-.78-.01-1.55,0-2.33.04-.25.13-.39.03-.25-.25.12-2.96.12-5.92,0-8.89-.05-.02-.07-.08-.08-.17-.08.02-.1,0-.08-.08-1.86,0-3.7-.02-5.54-.08-.07-.79-.07-1.71,0-2.52.88-.02,1.75-.04,2.6-.08l-2.65-.04c-.06.1-.1.09-.12-.04-.07-.02-.07-.05,0-.08.92-.08,1.84-.08,2.77,0,.02-.07.05-.07.08,0,.01-.07.04-.1.08-.08.06-.25.08-.51,0-.76-.06-.02-.05-.05,0-.08l.04-15.89c.07-.11,2.21-.06,2.5-.05.02,0,.04.04.06.08Z"/>
  <path class="cls-320" d="M54.64,85.6h.08c0,2.79,0,5.56,0,8.33l-.08.06c-.87.07-1.73.07-2.6,0-.05-1.83-.07-3.67-.04-5.54l-.04.09c-.02.07-.05.07-.08,0h-.08c-.07-.02-.07-.05,0-.08-.91-.07-1.82-.09-2.74-.04-.01-.92,0-1.85.03-2.77l.19-.04c1.79-.12,3.58-.12,5.37,0Z"/>
  <path class="cls-156" d="M46.09,82.67c.88.04,1.76.06,2.64.06-.02.85,0,1.7.04,2.55.06.02.05.05,0,.08-.03.1-.17.11-.4.04h-2.25c.03-.87.02-1.72-.04-2.55-.1.81-.05,1.69,0,2.52.07.02.07.05,0,.08.04.03,0,.06-.08.08-.08,0-.08-.05-.09-.12-.1-.76,0-1.91,0-2.73.02-.07.12-.06.17,0Z"/>
  <path class="cls-104" d="M87.79,59.76c-.07.11-.05.04-.08,0-.1-5.03-.1-10.07,0-15.1-.07-.02-.07-.04,0-.08-.02-.04,0-.06.08-.08v15.27Z"/>
  <path class="cls-163" d="M55.06,26.71c.13-.24.37-.24.5,0,5.68.05,11.35.05,17.03,0,0-.25.28-.24.34,0,.02-.07.05-.07.08,0,0,.03,0,.06,0,.08-6.04.07-12.08.07-18.12,0,0-.95,0-1.9,0-2.85h.08l.08.02c-.03.91-.03,1.83,0,2.75Z"/>
  <path class="cls-255" d="M48.94,85.52c1.98-.07,3.97-.07,5.96,0h.07c-.03,2.93-.05,5.83-.07,8.73-.92.05-1.85.07-2.79.06-.06.14-.14.14-.23.02-.02.07-.05.07-.08,0-.07-.02-.07-.05,0-.08-.07-.02-.07-.05,0-.08.05-.01.08-.02.08-.08.02-.07.05-.07.08,0,.96-.02,1.91-.05,2.85-.08h-.08s0-8.32,0-8.32c0,.14-.03.11-.08-.07-1.48-.19-3.79,0-5.37,0-.19.12-.27.12-.25,0-.02.07-.05.07-.08,0-.06-.02-.05-.05,0-.08Z"/>
  <path class="cls-266" d="M46,97.27s.06.03.08,0c.02-.06.05-.06.08,0,.07.01.12.06.17.13-.03,1.77-.01,3.52.06,5.24h8.23s.1.17.1.17c.13.1.07.14-.08.08-2.85.06-5.73.09-8.64.08v-5.79c.07.02.07.05,0,.08Z"/>
  <path class="cls-224" d="M70.17,102.89c.94-.01,1.87-.05,2.8-.11l.06.11c.02-.07.05-.07.08,0,.07.02.07.05,0,.08-.03,0-.06,0-.08,0-.01.14-.09.14-.25,0-5.87.07-11.75.07-17.62,0-.12.09-.21.09-.25,0-.07-.02-.07-.04,0-.08,5.09-.06,10.18-.05,15.27,0Z"/>
  <path class="cls-298" d="M72.94,105.91c.11-.11.13-.06.08.08l-18.12-.08c.02-.07.05-.07.08,0,.01-.19.07-.23.1-.04h17.75c.04-.11.07-.08.1.04Z"/>
  <path class="cls-77" d="M73.02,23.85c.08.11.04.16-.08.08l-.12.09c-1.14,0-2.27-.03-3.41-.09-.02.07-.04.07-.08,0-.33.1-.67.1-1.01,0-.02.07-.04.07-.08,0-4.19.07-8.39.07-12.59,0-.16.23-.34.23-.5,0-.05.16-.12.16-.17,0-.03,0-.06,0-.08,0l18.12-.08Z"/>
  <path class="cls-84" d="M43.07,44.49c.06,5.65.07,11.3,0,16.95.07.02.07.05,0,.08-.12.11-.16.06-.08-.08v-16.78c-.1.08-.16.04-.17-.08-.07-.02-.07-.05,0-.08.08,0,.17,0,.25,0Z"/>
  <path class="cls-54" d="M90.72,60.01v13.84s-2.85,0-2.85,0c-.09-.04-.03-.31,0-.42.02-.07.05-.07.08,0,.04.02.04.05,0,.08,0,.08,0,.17,0,.25.08,0,.17,0,.25,0,.77-.04,1.53-.05,2.3-.04.07-.06.11-.16.13-.29-.08-4.35-.1-8.96-.08-13.37,0-.02.04-.04.08-.06.02-.07.05-.07.08,0Z"/>
  <path class="cls-258" d="M37.44,59.93c.13.01.15.04.04.1l-.04,2c.07.02.07.04,0,.08.06.64.07,1.29,0,1.93l.09.7c-.03,2.99-.02,5.98.02,8.97l.98.07c.43-.08.9-.04,1.34,0,0-.16.05-.19.17-.08.11-.12.16.06.08.17-.92,0-1.85,0-2.77,0v-14.01c.13-.08.18-.04.08.08Z"/>
  <path class="cls-122" d="M40.21,66.73c.06,2.38.06,4.76,0,7.13-.03,0-.06,0-.08,0,.01-.08-.07-.13-.08-.17-.09-3.05-.09-6.1,0-9.15-.12-.12-.07-.17.08-.08l.12.08c-.11.71-.12,1.44-.03,2.18Z"/>
  <path class="cls-100" d="M40.55,44.49c.07.02.07.05,0,.08,0,.17-.09.2-.25.08.02,4.89.02,9.79,0,14.68-.02.07-.05.07-.08,0v-14.8c.01-.09.24-.04.34-.05Z"/>
  <path class="cls-219" d="M87.87,73.44v5.96s-.08-.02-.08-.02c-.04-1.77-.05-3.6,0-5.34-.17-.02-.26-.08-.25-.17.19-.09.28-.32.25-.67-.06-2.88-.06-5.76,0-8.64.02-.07.05-.07.08,0,.07,2.97.07,5.93,0,8.89Z"/>
  <path class="cls-325" d="M46.09,32.66c.08,1.94.08,3.9,0,5.87.07.02.07.05,0,.08-.08.08-.14.01-.17-.08,0-1.69-.2-4.16,0-5.75.01-.08-.03-.2.09-.21.05.01.09.02.08.08Z"/>
  <path class="cls-96" d="M78.98,85.52c.02-.07.04-.07.08,0,.02-.07.04-.07.08,0,0,1.01,0,2.02,0,3.02-1.01,0-2.02,0-3.02,0-.07-.02-.07-.04,0-.08-.07-.02-.07-.04,0-.08-.02-.98-.05-1.97-.1-2.95.98.04,1.97.08,2.95.1Z"/>
  <path class="cls-164" d="M76.04,26.87c.09.47.11,1.12,0,1.59h-.19c-.03-.43-.08-.87-.13-1.31l-2.27.12c.01.75-.01,1.5-.07,2.25l-.2.03c-.05-.38-.06-.79-.04-1.22l-.04.12c-.02.07-.05.07-.08,0-.07-.55-.07-1.12,0-1.68.03,0,.06,0,.08,0,.99,0,1.97.02,2.94.08Z"/>
  <path class="cls-292" d="M79.14,33.17c.04,1.86.06,3.72.05,5.58.93-.02,1.87,0,2.8.04.06,0,.11,0,.17,0,.07.02.07.05,0,.08,0,.06-.04.09-.08.08-.02.08-.04.07-.08,0-1.01-.01-2-.04-2.98-.1v-6.06c-.07-.16-.05-.23.04-.22.02-.06.05-.05.08,0,.06.2.06.39,0,.59Z"/>
  <path class="cls-127" d="M79.23,33.17c.12,1.83.08,3.7,0,5.54.03-.19.09-.23.12-.04h2.39c.04-.19.1-.14.18.04-.13-.22-.13-.53,0-.76.02-.07.05-.07.08,0v.84c-.95,0-1.9,0-2.85,0,0-1.87,0-3.75,0-5.62.02-.07.05-.07.08,0Z"/>
  <path class="cls-309" d="M54.64,99.95c0-.13.22-.12.25,0,.11.94.11,1.89,0,2.85.07.02.07.04,0,.08,0,.03,0,.06,0,.08-.08,0-.17,0-.25,0-.07-.02-.07-.05,0-.08.04,0,.06-.05.08-.08-.05-.03-.09-.08-.1-.14-.03-.6-.03-1.83.02-2.43l.16-.11c-1.96-.07-3.91-.1-5.87-.08v-.08c.02-.07.05-.07.08,0h5.62Z"/>
  <path class="cls-130" d="M48.77,38.62c.07.02.07.05,0,.08-.95.05-1.9.05-2.85,0v-.17c.05.02.12.08.17.08l.24-.15,2.2-.03v-5.67s.17-.1.17-.1c.09-.05.12-.04.12.04.01.35.03.71.03,1.07.02,1.55,0,3.12-.03,4.67,0,.06-.02.12-.04.18Z"/>
  <path class="cls-128" d="M54.64,102.89v.08c-2.88,0-5.76,0-8.64,0l8.64-.08Z"/>
  <path class="cls-231" d="M81.66,102.89c.07.02.07.05,0,.08-2.74.05-5.49,0-8.22,0-.07-.02-.07-.05,0-.08,2.68.04,5.37.02,8.06-.07l.16.07Z"/>
  <path class="cls-174" d="M79.31,97.18h2.69c-.05,1.76.06,3.53,0,5.29-.02.07-.05.07-.08,0-.01-1.73-.04-3.47-.08-5.2-.8.04-1.63.07-2.44.09-.06,0-.08-.01-.08-.09-.07-.02-.07-.05,0-.08Z"/>
  <path class="cls-48" d="M79.48,32.58c.84,0,1.68,0,2.52,0,0,1.79,0,3.58,0,5.37h-.08c-.08-1.73-.12-3.47-.11-5.21-.11,0-.19-.02-.23-.07-.45.21-1.31.21-1.84.16l-.26-.16c-.07-.02-.07-.05,0-.08Z"/>
  <path class="cls-74" d="M49.28,97.1c.84.02,1.68.05,2.52.08.02-.07.05-.07.08,0,.06.11-.03.13-.14.13h-2.75s0,2.41,0,2.41c.1.08.08.16-.03.23,0,.03,0,.06,0,.08-.18.19-.32.05-.17-.17.08-.74.08-1.5,0-2.27,0-.19-.05-.3-.17-.34-.07-.02-.07-.05,0-.08.37-.02.17-.04.25-.17.03-.08.05-.08.08,0,0-.15.1-.13.34.08Z"/>
  <path class="cls-263" d="M48.94,32.58c.11,2.05.11,4.09,0,6.12-.02.07-.13.07-.17,0v-.08c.05-1.97.08-3.98.08-6.04,0-.03,0-.06,0-.08.02-.07.05-.07.08,0,.07.02.07.05,0,.08Z"/>
  <path class="cls-212" d="M48.86,32.58c0,1.86.02,3.72,0,5.58,0,.14.05.37-.09.46-.13-1.85.17-3.92,0-5.75,0-.1.03-.15-.09-.2-.02.07-.05.07-.08,0-.07-.02-.07-.05,0-.08h.25Z"/>
  <path class="cls-308" d="M73.02,102.97c.07.83.19,2,.09,2.82-.01.08.03.2-.09.21l-.08-.08-.11-.04c.09-.86.18-1.94-.06-2.81-.07-.02-.07-.05,0-.08.08,0,.17,0,.25,0Z"/>
  <path class="cls-252" d="M40.3,74.03c.07.02.07.05,0,.08,0,1.84.04,3.63.08,5.37.03-.16.09-.15.17,0,.07.02.07.05,0,.08-.11,0-.22,0-.34,0,0-1.9,0-3.81,0-5.71.02-.07.04-.07.08,0,.22.03.21.1,0,.17Z"/>
  <path class="cls-120" d="M54.9,26.79c.07.02.07.04,0,.08.1.93.06,1.96.03,2.87h-.11c-.92.08-1.85.03-2.77-.01-.02.07-.05.07-.08,0-.06-.02-.05-.05,0-.08l.1-.17h2.58s.02-2.05.02-2.05l.15-.3c-.11-.06-.16-.14-.17-.25-.07-.02-.07-.05,0-.08.08,0,.17,0,.25,0Z"/>
  <path class="cls-281" d="M76.21,29.73c.98,0,1.96,0,2.94,0,0,.92,0,1.85,0,2.77-.02.06-.05.05-.08,0-.16.03-.17-.07-.04-.32.03-.3.06-2.24-.08-2.31-.88,0-1.77-.01-2.65-.05-.02.07-.05.07-.08,0-.06-.02-.05-.05,0-.08Z"/>
  <path class="cls-285" d="M87.87,79.4v.12c-.02.06-.05.03-.08.04-.08,0-.1-.03-.08-.08-.07-.02-.07-.05,0-.08-.1-1.74-.08-3.55,0-5.29-.07-.02-.07-.05,0-.08h.08l.08,5.37Z"/>
  <path class="cls-254" d="M76.12,94.16c-.02.06-.05.05-.08,0-.07-.02-.07-.05,0-.08-.07-.02-.07-.05,0-.08-.16-1.7-.16-3.41,0-5.12-.12-.19-.12-.27,0-.25-.07-.02-.07-.05,0-.08.02-.06.05-.05.08,0,0,1.87,0,3.75,0,5.62Z"/>
  <path class="cls-107" d="M84.93,44.49c.07.02.07.04,0,.08-.02.07-.05.07-.08,0-.07-.02-.07-.04,0-.08-.07-.02-.07-.04,0-.08-.04-1.82-.07-3.64,0-5.45.02-.07.05-.07.08,0,.09,1.8,0,3.73,0,5.54Z"/>
  <path class="cls-177" d="M51.96,94c.07.02.07.05,0,.08h-.08v-5.54h.08c.07,1.82.07,3.64,0,5.45Z"/>
  <path class="cls-86" d="M46.09,82.84c.14.03.08.26.08.38.03.71-.02,1.43,0,2.14h2.6c.07.02.06.12,0,.17-.06,0-.11,0-.17,0-.83-.05-1.67-.08-2.52-.08v-.08c-.06-.83-.09-1.69,0-2.52Z"/>
  <path class="cls-105" d="M73.02,26.71h-.08c-.24,0-.23-.19,0-.25-.08-.7-.05-1.4,0-2.1-.12-.24-.12-.38,0-.42.04,0,.08-.04.08-.08.12,0,.08.12.09.21.11.86-.07,1.8-.09,2.65Z"/>
  <path class="cls-243" d="M40.21,59.76c.13.15.09.24-.07.12l-.27.05c-.8.03-1.58.07-2.36.12l-.08-.12s-.03-.09-.08-.08c0-.08.05-.08.12-.09.83-.11,1.88.1,2.73,0Z"/>
  <path class="cls-92" d="M43.15,44.49c-.02.07-.04.07-.08,0,0-1.73-.08-3.57,0-5.29.02-.07.05-.07.08,0,.04.08.07.16.1.25s.05.17.05.25c.02,1.42.03,2.87.02,4.29,0,.08-.03.17-.05.25s-.07.17-.11.25Z"/>
  <path class="cls-240" d="M45.25,82.42c.24-.02.46-.02.67,0,.06.05.06.11,0,.17-.89,0-1.79,0-2.68,0-.1-.02-.15-.08-.08-.17.02-.07.05-.07.08,0,.68-.06,1.36-.06,2.01,0Z"/>
  <path class="cls-226" d="M84.77,82.42c.02-.07.05-.07.08,0,.07.04.04.1,0,.17-.11.09-2.47,0-2.85,0-.04-.07,0-.1.08-.08.02-.08.05-.07.08,0l.09-.2c.78-.03,1.56-.04,2.35-.01l.17.13Z"/>
  <path class="cls-126" d="M48.94,94.25c.21.82.16,1.91,0,2.77-.02,0-.08,0-.08,0l.08-2.85c.08,0,.07.04,0,.08Z"/>
  <path class="cls-209" d="M79.14,96.93c.02.38.04.17.17.25,0,0,0,.06,0,.08.13.01.1.1-.08.25-.02.07-.05.07-.08,0l-.08-.25c-.95-.03-1.9-.06-2.85-.08-.06-.02-.06-.05,0-.08.03-.19.09-.23.12-.04.89-.02,1.77,0,2.65.04-.1-.11-.07-.17.08-.17.02-.07.05-.07.08,0Z"/>
  <path class="cls-181" d="M73.44,99.95c.07.02.07.05,0,.08-.22.01-.31.27-.25.76.16.05.16.12,0,.17.07.17.07.34,0,.5.07.02.07.04,0,.08.07.41.04.86,0,1.26.09.03.17.06.25.08v.08c-.11,0-.22,0-.34,0v-.08c-.07-.94-.07-1.99,0-2.94.05-.07.26-.06.34,0Z"/>
  <path class="cls-288" d="M45.92,38.79c.07.02.07.05,0,.08l-.17.11c-.73-.02-1.48-.06-2.26-.11-.02.08-.04.07-.08,0-.16.07-.21.17-.25.34h-.08c0-.14,0-.28,0-.42h2.85Z"/>
  <path class="cls-53" d="M55.15,102.97c.07.02.07.05,0,.08-.12.07-.17.21-.17.42.07.81.07,1.62,0,2.43h-.08c0-.98,0-1.96,0-2.94.08,0,.17,0,.25,0Z"/>
  <path class="cls-57" d="M43.15,79.65c.07.03.14.07.18.14.05.11,0,2.25-.03,2.47l-.14.16s.07.11.08.17c-.25.05-.16-.13-.17-.29-.04-.91.03-1.82,0-2.73.02-.05.05-.05.08,0,.07.03.07.05,0,.08Z"/>
  <path class="cls-253" d="M48.77,38.7h.17c.06.01.06.04,0,.08-.98.02-1.96.04-2.94.08-.02.06-.05.06-.08,0v-.17h2.85Z"/>
  <path class="cls-108" d="M51.88,29.73c.06.02.05.05,0,.08-.02.07-.05.07-.08,0-.06.09-.14.14-.24.18-.14.05-2.04,0-2.37-.03l-.25-.15c-.03.07-.06.07-.08,0,.09-.14.32-.08.46-.09.85-.01,1.71,0,2.56,0Z"/>
  <path class="cls-8" d="M84.85,82.58c0-.06,0-.11,0-.17-.04-.89-.07-1.8,0-2.68-.07-.02-.07-.05,0-.08-.07-.02-.07-.05,0-.08.02-.06.05-.05.08,0,0,.85.01,1.71,0,2.56,0,.14.05.37-.09.46Z"/>
  <path class="cls-15" d="M90.72,59.85v.17h-.08c-.09.11-.14.04-.17-.08-.01,0-.18,0-.25,0-.77.06-1.58.08-2.35,0l2.85-.08Z"/>
  <path class="cls-195" d="M79.23,82.58c.07.02.07.05,0,.08.06.89.06,1.79,0,2.68.07.02.07.05,0,.08.07.02.07.05,0,.08-.03,0-.06,0-.08,0-.08-1.01-.08-2.02,0-3.02.02-.06.05-.05.08,0,.07.02.07.05,0,.08Z"/>
  <path class="cls-165" d="M48.94,82.58c.06.02.05.05,0,.08-.04.24-.07.2-.17,0-.9.05-1.79.08-2.68,0h-.17s0-.06,0-.08c.02-.07.04-.07.08,0,.98-.07,1.96-.07,2.94,0Z"/>
  <path class="cls-186" d="M76.12,29.73c-.02.07-.05.07-.08,0-.08-.02-.07-.04,0-.08-.26-.27-.24-.89,0-1.17v-1.59c-.07-.02-.07-.05,0-.08.08,0,.08.05.09.12.1.79,0,1.98,0,2.82Z"/>
  <path class="cls-44" d="M48.94,85.6c.07.82.07,1.74,0,2.6.12.05.15.24,0,.25-.03.05-.05.05-.08,0,0-.98,0-1.96,0-2.94.02-.07.04-.07.08,0v.08Z"/>
  <path class="cls-323" d="M82,82.58c-.02.06,0,.17,0,.25-.02.07-.05.07-.08,0l-.17-.17c-.85.01-1.67.05-2.46.11l-.06-.11v-.08c.87-.08,1.88-.06,2.77,0Z"/>
  <path class="cls-251" d="M76.04,26.79v.08l-2.94-.08c.98,0,1.96,0,2.94,0Z"/>
  <path class="cls-234" d="M79.06,32.49h.08s0,.06,0,.08c-.03,0-.06,0-.08,0l-.04.11c-.93-.06-1.87-.1-2.81-.11-.06-.02-.05-.05,0-.08.92,0,1.85-.05,2.8-.11l.06.11Z"/>
  <path class="cls-299" d="M51.79,88.46v.08c-.83,0-2.03.1-2.82,0-.07,0-.13,0-.12-.09h.08c.05-.2.16-.24.21-.04.88-.05,1.76-.03,2.64.04Z"/>
  <path class="cls-118" d="M51.96,26.87l.1.12c-.05.84-.09,1.7-.1,2.57.07.02.07.04,0,.08,0,.03,0,.06,0,.08-.02.07-.04.07-.08,0,0-.82-.01-1.65,0-2.48,0-.14-.05-.37.09-.46.08,0,.07.04,0,.08Z"/>
  <path class="cls-220" d="M87.79,44.49c0,.05-.08.08-.08.08l-.1.09c-.87,0-1.73,0-2.59,0-.02.07-.05.07-.08,0-.06-.02-.05-.05,0-.08,0-.03,0-.06,0-.08h2.85Z"/>
  <path class="cls-284" d="M82.16,38.79c.92,0,1.85,0,2.77,0,0,.06,0,.11,0,.17h-.08c-.14-.05-.31-.07-.5-.08-.71.12-1.46.06-2.18,0v-.08Z"/>
  <path class="cls-171" d="M51.79,94.16v.08c-.01.13-.04.15-.09.04l-.66-.04c-.05.16-.12.16-.17,0-.53.06-1.07.07-1.59,0-.03.22-.1.21-.17,0-.03.22-.1.21-.17,0,0-.03,0-.06,0-.08.24-.13,2.34.1,2.85,0Z"/>
  <path class="cls-191" d="M76.21,29.81c.2.03.24.13.04.18-.02.79,0,1.58.04,2.37l-.08.06c.07.02.07.05,0,.08v.08s-.05.05-.08,0c-.06-.95-.06-1.9,0-2.85.03,0,.06,0,.08,0v.08Z"/>
  <path class="cls-4" d="M48.86,85.52s-.06,0-.08,0v-.25c-.07-.84-.06-1.68,0-2.52.02-.02.05-.04.07-.04.14,0,.04,2.35.01,2.8Z"/>
  <path class="cls-270" d="M79.14,96.93h-.08s-.04-.05,0-.08c-.07-.03-.07-.06,0-.08-.07-.16-.07-.35,0-.5-.13-.05-.13-.12,0-.17-.07-.39-.07-.79,0-1.17-.13-.09-.13-.56,0-.67.02-.03.05-.03.08,0,.04.88-.06,1.81,0,2.68Z"/>
  <path class="cls-126" d="M48.94,32.49h-.08c0-.89,0-1.79,0-2.68.03,0,.06,0,.08,0,.07,0,.16.03.17.08.06.5.07,2,0,2.49l-.17.12Z"/>
  <path class="cls-65" d="M81.91,85.44s.03.05,0,.08c-.89,0-1.79,0-2.68,0v-.08s.02-.04.03-.04c.88-.01,1.84,0,2.66.04Z"/>
  <path class="cls-187" d="M54.64,26.79v.08l-.03.11c-.87-.01-1.74-.01-2.6,0l-.06-.11s0-.06,0-.08c.89,0,1.79,0,2.68,0Z"/>
  <path class="cls-290" d="M81.91,85.52s0-.06,0-.08c-.14,0-.14-.06,0-.17-.11-.78-.18-1.67,0-2.43h.08c-.04.73,0,1.49,0,2.22,0,.14.05.37-.09.46Z"/>
  <path class="cls-281" d="M48.6,97.18v.08c-.69.1-1.54.07-2.27,0-.03.22-.1.21-.17,0h-.08c-.02.07-.05.07-.08,0v-.08c.85-.04,1.75.06,2.6,0Z"/>
  <path class="cls-247" d="M48.6,32.58v.08l-.19.15c-.26.02-1.96.07-2.06.03-.08-.03-.14-.1-.18-.18-.02.07-.05.07-.08,0l-.08-.08h2.6Z"/>
  <path class="cls-312" d="M48.6,85.52c-.87,0-1.74,0-2.6,0,0-.04.05-.08.08-.08.61-.06,1.42,0,2.06,0,.14,0,.37-.05.46.09Z"/>
  <path class="cls-185" d="M42.56,79.48c.25-.09.39-.09.42,0,.02-.07.05-.07.08,0,.07-.04.1,0,.08.08-.03,0-.06,0-.08,0-.82,0-1.71.05-2.52,0v-.08c.56-.24,1.48-.28,2.01,0Z"/>
  <path class="cls-225" d="M86.11,79.48c0-.14.05-.14.17,0,.34-.14.74-.11,1.09,0,.07.02.07.05,0,.08-.81.02-1.62,0-2.43,0-.07-.02-.07-.04,0-.08.02-.07.04-.07.08,0,.37-.08.73-.14,1.09,0Z"/>
  <path class="cls-178" d="M79.14,94.25s-.06,0-.08,0c-.05.16-.12.16-.17,0-.03.16-.09.15-.17,0-.64.08-1.29.07-1.93,0-.07-.02-.07-.05,0-.08.63,0,1.26,0,1.89,0,.14,0,.37-.05.46.09Z"/>
  <path class="cls-19" d="M42.81,44.49v.08l-.16.16c-.65-.04-1.3-.03-1.95,0l-.16-.16v-.08c.73-.04,1.53,0,2.27,0Z"/>
  <path class="cls-14" d="M79.48,32.58v.08c-.02.07-.04.07-.08,0-.05.1-.11.27-.17.5h-.08c0-.2,0-.39,0-.59.11,0,.22,0,.34,0Z"/>
  <path class="cls-132" d="M82,102.47c0,.17,0,.34,0,.5-.11,0-.22,0-.34,0v-.08c.05-.08.13-.14.25-.17-.06-.07-.07-.18,0-.25h.08Z"/>
  <path class="cls-230" d="M76.8,94.16v.08c-.2.05-.4.09-.59,0-.02.07-.04.07-.08,0-.07-.02-.07-.04,0-.08.22,0,.45,0,.67,0Z"/>
  <path class="cls-145" d="M40.3,59.76c0,.08-.04.07-.08,0,.03-.09-.02-.3,0-.42h.08v.42Z"/>
  <path class="cls-229" d="M87.7,79.48s.07.04.08.08c-.09.03-.3,0-.42,0v-.08c.07-.17.25-.18.34,0Z"/>
  <path class="cls-173" d="M67.31,26.96l5.55.07c.02.91.05,1.8.07,2.69.03-.43.06-.85.08-1.26h.08c.06.41.07.84,0,1.26.13.06.13.11,0,.17.82.1,1.7.07,2.52,0,.02-.13.1-.12.17,0l.09.08c.01.88.04,1.75.07,2.61.05-.92.08-1.87.08-2.85h.08c0,.95,0,1.9,0,2.85.96.03,1.92.06,2.89.08l-.04.09v6.12c.07-.04.07.01.08.08.93.05,1.87.07,2.81.06l.04.19c0,1.78.03,3.55.07,5.31l.18.06c.07.03.07.05,0,.08v.04c.79-.02,1.65-.01,2.56.04v16.64s-.55.06-.55.06c-.69,0-1.39.03-2.1.08v.08c-.02.07-.05.07-.08,0-.04.84-.07,1.71-.08,2.6v.08s-11.58.08-11.58.08c-.02.05-.05.05-.08,0-.06-.9-.09-1.82-.08-2.77-.07-.02-.07-.05,0-.08-.07-.02-.09-.04-.08-.08-.07-.02-.07-.05,0-.08.02-.07.05-.07.08,0,.05-.98.08-1.96.08-2.94l.02-.08c.6.04,1.18.01,1.74-.08.25-.07.51-.07.76,0,.04.17-.53.13-.5.13.47.06.77-.02.89-.25.07-7.49.05-14.97-.05-22.44-.34.02-2.81.14-2.9,0,.03-1.99.02-3.97-.04-5.95-.02.07-.05.07-.08,0-.93-.04-1.87-.06-2.8-.08l-.05-.09c-.09-.66-.11-1.45-.09-2.15-.03-.2,0-.35.09-.45.02-.07.04-.07.08,0Z"/>
  <path class="cls-32" d="M84.93,44.66c.07,5.62.07,11.24,0,16.86-.02,0-.05,0-.08,0-.08,0-.11-.04-.08-.08-.08-5.03-.06-10.07,0-15.1.09-.58.08-1.15-.03-1.68l.11-.08h.08s0,.06,0,.08Z"/>
  <path class="cls-83" d="M90.64,60.01v13.42c-.02.07-.05.07-.08,0l-.08-13.51c.07,0,.13.03.17.08Z"/>
  <path class="cls-17" d="M87.7,44.58s0,.06,0,.08c-.01.05-.02.09-.08.08h-2.52s-.08,15.86-.08,15.86c-.06-5.31-.06-10.63,0-15.94.84-.19,1.81-.03,2.68-.08Z"/>
  <path class="cls-228" d="M85.02,60.6v.08c.08.24.07.51,0,.76-.02.03-.04.07-.08.08,0-5.62,0-11.24,0-16.86h.08v15.94Z"/>
  <path class="cls-202" d="M87.7,59.76c-.1-.13-.08-.14-.09-.29-.33-4.77.25-9.92,0-14.73l.08-.08v15.1Z"/>
  <path class="cls-261" d="M84.85,61.69c-.9.02-1.77.05-2.63.11l-.06-.11c.19.03.23.09.04.12v2.44c.1.06.09.1-.04.12.03-.19.09-.23.13-.04l5.5.04s.06.05.08.08v.08h-.08c-1.95-.02-3.88-.03-5.79-.05.1-.84.09-1.71,0-2.55-.08-.09-.05-.23,0-.34h.08l2.77.08Z"/>
  <path class="cls-35" d="M84.85,61.69c-.03.14-.26.08-.38.08-.74.03-1.49-.02-2.22,0v2.52l5.54.08h-5.62v-2.68h2.68Z"/>
  <path class="cls-152" d="M87.95,64.63c.12,2.93.12,5.87,0,8.81h-.08v-8.98c.06.06.06.1.08.17Z"/>
  <path class="cls-310" d="M87.95,73.52s0-.06,0-.08c-.13-2.9.1-5.9,0-8.81.03.1.08.11.09.28.21,2.44.02,5.63,0,8.15,0,.14.05.37-.09.46Z"/>
  <path class="cls-137" d="M84.18,61.44l.47-.04c.05-.11.09-.09.11.04.04,0,.08.04.08.08-.86.1-1.89-.07-2.77,0,0-.08.06-.08.12-.08.52-.08,1.41,0,1.98,0Z"/>
  <path class="cls-159" d="M90.64,73.44v.34c-.79-.04-1.65.06-2.43,0,.61-.27,1.73.07,2.3-.08.09-.02.04-.19.05-.26h.08Z"/>
  <path class="cls-135" d="M90.22,59.93c-.09.14-.32.08-.46.09-.5,0-1.01.02-1.51,0-.12,0-.35.06-.38-.08.78.02,1.57-.03,2.35,0Z"/>
  <path class="cls-17" d="M85.02,61.44v-.76c.15.16.13.57,0,.76Z"/>
  <path class="cls-2" d="M54.64,85.6c.06,0,.18-.04.17.05v8.34c-.05.06-.13.06-.17,0v-8.39Z"/>
  <path class="cls-319" d="M49.28,85.6c-.16.08-.16.12-.17.29-.06.79.06,1.68,0,2.48.87.02,1.86-.17,2.68.08h-2.85c.01-.08-.02-.18,0-.25.03-.87.06-1.74.08-2.6h.25Z"/>
  <path class="cls-42" d="M52.04,94c-.02.05-.05.05-.08,0,.05-1.81-.07-3.64,0-5.45,0-.06-.03-.26.08-.13v5.58Z"/>
  <path class="cls-294" d="M54.64,94h.17c0,.08-.05.08-.12.09-.83.11-1.87-.08-2.73,0v-.08h2.68Z"/>
  <path class="cls-86" d="M48.77,82.67c.07.02.07.05,0,.08v2.52c-.19-.8-.03-1.69-.08-2.52-.09-.09-2.28.13-2.6-.08h2.68Z"/>
  <path class="cls-22" d="M46.09,85.35c-.15-.63-.09-1.39-.09-2.06,0-.14-.05-.37.09-.46v2.52Z"/>
  <path class="cls-103" d="M55.65,23.94c4.04.09,8.57.11,12.59,0,.03,0,.06,0,.08,0,.32.1.68.11,1.01,0,.03,0,.06,0,.08,0,1.13.07,2.26.1,3.4.07.11.05.11.25.04.35.03.69.06,1.39.08,2.1v.25h-.34c-5.68.05-11.35.05-17.03,0-.17,0-.34,0-.5,0-.03-.89-.03-1.79,0-2.68l.09-.09c.17,0,.34,0,.5,0Z"/>
  <path class="cls-257" d="M73.02,26.79c-.01.56,0,1.12,0,1.68,0,.4.07.91-.08,1.26l-.08-.08c.05-.86.08-1.72,0-2.57-1.85-.09-3.69-.13-5.54-.12-.03,0-.06,0-.08,0-.02.07-.04.07-.08,0-3.99-.04-8.04-.06-12.17-.08-.02.07-.05.07-.08,0,0-.03,0-.06,0-.08,6.04-.03,12.08-.02,18.12,0Z"/>
  <path class="cls-319" d="M72.6,26.71c-5.61,0-11.45.2-17.03,0h17.03Z"/>
  <path class="cls-20" d="M55.15,23.94c-.19.89-.03,1.86-.08,2.77l-.08-2.77c.05,0,.11,0,.17,0Z"/>
  <path class="cls-203" d="M40.47,73.77h-.08c-.02-3.04-.04-6.06-.05-9.09l8.2-.02c0,.19.06.28.15.29.06.77.07,1.54.04,2.32.02.08.06.14.13.2.65.04,1.3.06,1.93.08h20.3c1.65-.06,3.3-.05,4.95-.03v8.95s-.08.06-.08.06c-.92.05-1.84.05-2.77,0l-.1.13c-.07,1.91-.07,3.86-.03,5.78l-2.89.05c.08,0,.07.04,0,.08-.01.1-.04.2-.1.1v2.71c-.96.03-1.94.05-2.94.03.13,0,.1.03-.07.09-.04.96-.06,1.93-.04,2.89-3.97.02-7.93,0-11.87-.04-.02-.96-.05-1.92-.08-2.85-.08.95-.1,1.98,0,2.94.16.05.16.12,0,.17-.05.89-.08,1.79-.08,2.68,0,1,.04,1.98.08,2.94.05.05.08.13.03.19-.11.15-1.95.09-2.27.06l-.2-.17c-.17.04-.36.06-.55.05.01.96,0,1.92-.04,2.88.55.32-.42.75-.17.17-.07-.02-.07-.05,0-.08-.09-.09-.09-.14,0-.17-.07-.16-.07-.35,0-.5.03-.15.06-.29.08-.42-.02-.19-.05-.39-.08-.59-.06-.28-.06-.56,0-.84.07-.13.07-.29,0-.42-.06-.02-.05-.05,0-.08.96-.19,2.02-.03,3.02-.08v-8.73c-1.98,0-3.97,0-5.96,0-.06-.02-.05-.05,0-.08.03-.19.09-.23.13-.04l5.75.04-.09-.08-5.59-.04c-.07-.1-.11-.23-.11-.38-.06-.06-.06-.19,0-.25.07-.7.09-1.48,0-2.18-.02.07-.05.07-.08,0-.07-.03-.07-.06,0-.08-.9-.06-1.82-.08-2.76-.05.05-.94.05-1.87,0-2.8-.13.02-.19-.04-.17-.17-.87-.07-1.74-.07-2.6,0-.02.06-.05.06-.08,0-.03-1.84-.05-3.69-.08-5.54-.03.05-.06.02-.08-.08-.9.06-1.8.06-2.68,0Z"/>
  <path class="cls-250" d="M49.11,94.25c.07,0,.16.03.17.08.05.51.08,2.12,0,2.57l-.17.12c0-.07.03-.16.07-.17.27-.02,2.29-.04,2.4,0,.06.02.09.1.12.17l-.17-.08v-2.37c-.3-.05-.47-.16-.5-.33h.76v.08c.06.92.06,1.85,0,2.77-.82.06-1.66.06-2.52,0-.16-.02-.24-.06-.34-.08,0-.58.1-1.14.09-1.72,0-.35-.13-.67-.09-1.04h.17Z"/>
  <path class="cls-275" d="M51.88,94.41c.07.13.07.29,0,.42v.84c.07.2.07.39,0,.59.07.14.06.28,0,.42,0,.17,0,.34,0,.5-.03,0-.06,0-.08,0-.07-.02-.07-.05,0-.08v-2.77h.08v.08Z"/>
  <path class="cls-90" d="M48.94,88.21v-2.6h.08c-.05.86.11,1.77-.08,2.6Z"/>
  <path class="cls-208" d="M46.34,97.27c.81.04,1.6.07,2.4.08-.02.84-.01,1.68.04,2.52.04.08.09.13.17.17,1.96-.02,3.92.01,5.87.08.04.13.03,2.23,0,2.48-.01.12-.02.12-.09.2h-8.56s0-5.54,0-5.54h.17Z"/>
  <polygon class="cls-69" points="46.09 97.27 46.04 102.81 46 97.27 46.09 97.27"/>
  <path class="cls-189" d="M72.77,102.97v.08c-5.74.07-11.85.07-17.62,0v-.08c5.87,0,11.75,0,17.62,0Z"/>
  <path class="cls-134" d="M55.06,102.8c4.98-.03,9.96-.03,14.93,0,.02-.07.04-.07.08,0,.02-.07.04-.07.08,0,.07.02.07.05,0,.08h-15.27s0-.06,0-.08c.02-.07.05-.07.08,0,.02-.07.05-.07.08,0Z"/>
  <path class="cls-197" d="M73.02,102.89h-2.85v-.08c.03-.16.09-.13.17,0,.84-.18,1.69-.22,2.54-.11-.19-.07-.13-.3.06-.39.02-.07.05-.07.08,0,.07.15.07.43,0,.59Z"/>
  <path class="cls-268" d="M73.1,99.95v2.94h-.08v-.59c-.06-.81-.09-1.62,0-2.43h.08c.07.02.07.05,0,.08Z"/>
  <path class="cls-200" d="M72.77,103.06h.17s0,2.85,0,2.85h-17.96c.02-.81-.03-1.62,0-2.43.02-.07.05-.07.08,0,.19.35.28,1.94.12,2.21-.03.05-.07.1-.12.14l.06-.17h17.63l.1.17-.18-.18c.04-.77.03-1.53-.03-2.29l.13-.21c-.07-.03-.07-.06,0-.08Z"/>
  <path class="cls-12" d="M68.24,23.94c-.28.25-.91.08-1.3.08-3.45-.04-6.89.1-10.33.04-.28,0-.71,0-.96-.12,4.19-.07,8.4,0,12.59,0Z"/>
  <path class="cls-12" d="M72.94,23.94v.42c-.02.07-.05.07-.08,0,0-.08.02-.18-.04-.25-.21-.27-2.9.15-3.4-.17,1.1,0,2.47.1,3.52,0Z"/>
  <path class="cls-12" d="M69.33,23.94c-.16.21-.84.18-1.01,0,.33,0,.67,0,1.01,0Z"/>
  <path class="cls-320" d="M40.55,44.58c.64-.04,1.64-.06,2.27,0,.07,0,.16-.02.17.08v16.78l.08.08c.07.03.07.05,0,.08.07.01.1.04.08.08,8.82.08,18.02.07,26.85,0l.1.06c.01.94.03,1.87.07,2.79.07.03.07.06,0,.08l11.69.04c.03.84.02,1.66-.03,2.48-10.92.05-21.87.07-32.84.04,0-.89-.01-1.77-.05-2.64-.04.18-.09.21-.17.08-.07.12-.1.12-.09-.02-2.79-.04-5.6-.05-8.42-.03.01.71,0,1.43-.05,2.14-.19-.71-.03-1.53-.08-2.27,2.91-.02,5.79-.05,8.64-.08h-8.56s0,.07-.08.08c-.02.02-.07.06-.08.08-.09,3.05-.09,6.1,0,9.15,0,.11-.09.08-.17.08-.46-.02-.91-.05-1.34-.08-.29.05-1.03.19-1.02-.24.02-4.15.02-8.26,0-12.35-.06-.02-.05-.05,0-.08.07-.19.07-.4,0-.59-.05-.13-.06-.28-.04-.45.85.02,1.65,0,2.39-.05.07-.11.29-.05.34-.17.03,0,.06,0,.08,0v-15.1l.05-.08c.07-.02.14,0,.2,0Z"/>
  <path class="cls-158" d="M43.23,61.44c.12-.06.26-.06.42,0l.08-.17h26.25l.1.17c.06,0,.07.03.08.08-.02.07-.05.07-.08,0-8.88.07-18.14.07-27.02,0,0-.03,0-.06,0-.08.02-.07.05-.07.08,0,.02-.07.05-.07.08,0Z"/>
  <path class="cls-183" d="M43.15,61.44h-.08c0-5.65,0-11.3,0-16.95.03,0,.06,0,.08,0,.06,5.65.07,11.3,0,16.95Z"/>
  <path class="cls-34" d="M38.54,73.69c.07.02.07.05,0,.08-.36,0-.73,0-1.09,0,.03-3.24-.04-6.49,0-9.73.07-.64.06-1.29,0-1.93,0-.03,0-.06,0-.08,0-.32.02-.63.08-.92.14.09.08.32.09.46.05,3.87-.02,7.76-.04,11.63-.03.68.45.48.96.49Z"/>
  <path class="cls-18" d="M39.88,59.93c.1,0,.35-.06.34.08h-2.68c0,.14,0,.28,0,.42.07.19.07.4,0,.59,0,.03,0,.06,0,.08-.01.31-.08.69-.08.92v-2.1c.7.09,1.68-.03,2.43,0Z"/>
  <path class="cls-18" d="M37.44,64.04c0-.64-.02-1.29,0-1.93.14.57.14,1.36,0,1.93Z"/>
  <path class="cls-121" d="M39.88,73.77c-.41.04-.92,0-1.34,0v-.08c.43,0,.96-.08,1.34.08Z"/>
  <path class="cls-296" d="M48.77,64.63l.08.03v2.54l-.08.12c8.97-.04,18.09-.01,27.35.08.07.02.07.05,0,.08-9.09.07-18.18.09-27.27,0-.04-.02-.15.05-.17-.05-.03-.81.06-1.66,0-2.46-.08.03-.13-.07-.16-.27-2.75-.06-5.48-.04-8.19.04l.04,8.98c0-.14.03-.11.09.07.79.1,1.96-.14,2.68,0,.03.03.03.05,0,.08-.02.07-.05.07-.08,0,0,.02-.01.04-.03.05-.11.08-2.39.06-2.69.03-.02,0-.04-.04-.06-.08-.03,0-.06,0-.08,0,0-2.38,0-4.76,0-7.13,0-.73,0-1.46,0-2.18,2.74.09,5.54-.11,8.27,0,.16,0,.25.09.28.09Z"/>
  <path class="cls-279" d="M40.05,73.69c-.05-.12-.08-.11-.09-.28-.22-2.78.18-5.85,0-8.66-.03-.1.07-.16.09-.2v9.15Z"/>
  <path class="cls-160" d="M40.3,59.76c0-.14,0-.28,0-.42.12-4.89-.09-9.79,0-14.68v15.1Z"/>
  <path class="cls-242" d="M87.79,64.55c-.04,2.88.06,5.77,0,8.64-.02.07-.05.07-.08,0,0-2.85,0-5.76-.08-8.56l-.12.15-1.86.02-.12-.16c-1.07.09-2.21.06-3.27,0-.07-.02-.07-.05,0-.08,1.84-.04,3.69-.04,5.54,0Z"/>
  <path class="cls-33" d="M87.53,73.86s.24.13.25.17h-.08c-.06.12-.14.15-.17,0-.85.08-1.69.08-2.52,0-.04.02-.06,0-.08-.08-.07-.02-.07-.05,0-.08.85-.11,1.78-.1,2.6,0Z"/>
  <path class="cls-85" d="M87.79,73.19c0,.33.14.78-.25.67-.5-.1-2.02-.03-2.6,0-.02.07-.05.07-.08,0,.03-.22.27-.31.72-.26l1.73.02c.15,0,.28-.06.4-.18v-.25h.08Z"/>
  <path class="cls-103" d="M48.6,32.66s.07,0,.08,0v5.96c-.84-.06-1.78.08-2.6,0v-.08c.04-1.94.07-3.9.08-5.87.76.07,1.7-.1,2.43,0Z"/>
  <path class="cls-111" d="M46.09,38.54v-5.87h.08c-.08,1.83.11,3.77,0,5.59,0,.11,0,.21-.09.28Z"/>
  <path class="cls-221" d="M87.62,64.63c.08,2.89.09,5.9.08,8.81,0,.08.02.18-.04.25-.19.25-2.39-.08-2.82.17-.02.08-.05.07-.08,0l-.06,5.5c-.92-.04-1.83-.03-2.71.04.07.02.07.04,0,.08.07.02.07.05,0,.08-.05.62-.08,1.23-.08,1.85-.03.34-.06.66-.08.97-.9-.02-1.8,0-2.69.04.05.03.02.06-.08.08-.03.07-.06.07-.08,0l-.04,2.8-2.81.05c.94.04,1.89.07,2.85.08.06.02.06.05,0,.08-.95,0-1.9,0-2.85,0,0,.95,0,1.9,0,2.85-.02.06-.05.05-.08,0-.02-.96-.05-1.92-.08-2.85l-.05,2.81c-.94-.02-1.88,0-2.8.04.06.03.03.06-.08.08-.02.08-.05.07-.08,0v5.79c.02-.07.04-.07.08,0,.02-.07.05-.07.08,0l.17.08c.88.04,1.76.06,2.64.05l.04,2.89c.02-.07.05-.07.08,0,.02-.07.05-.07.08,0,.07.01.09.04.08.08.86.05,1.72.06,2.58.04.14.01.17.15.11.25.07.65.07,1.4,0,2.06-1.91.06-3.84.09-5.79.08.05.03.02.06-.08.08-.05.81-.07,1.62-.08,2.43,0,.17,0,.34,0,.5-.87,0-1.74,0-2.6,0-.07-.02-.07-.05,0-.08-.05-1.85-.07-3.7-.05-5.56.26.09.1-.08-.11-.06-.98.08-1.96.08-2.94,0l-.07-.12c.08-1.88.14-3.81-.01-5.67,0,.21-.16.24-.23.04-3.97.02-7.92,0-11.85-.04-.06-.02-.05-.05,0-.08v-.08c-.06-.02-.05-.05,0-.08.1-.76.05-1.57,0-2.35-.05-.02-.05-.05,0-.08-.01-.08,0-.08.06-.08l11.94.08c.17.14.22.08.17-.17-.08-.95-.08-1.9,0-2.85.95-.06,1.91-.07,2.9-.04.06-.11.1-.09.12.04l-.11-.04c.06-.95.09-1.92.11-2.9l.06-.07c.93.03,1.87.05,2.79.07-.05-.1.07-.18.17-.17l-.08-.26.02-5.49c1.01-.01,2.01-.05,3-.13-.07-.96-.07-2.11,0-3.1.15-.07.22-.03.24.12-.02,0,.04,1.9.11,1.63,0-.03.06-.54.07-.66.04-.41.04-.56-.17-.91l.16-.38c0-.79,0-1.57,0-2.36.03-.56.24-.84.62-.85l-.1-1.83c-.37,0-.68-.05-.95-.15-.07-.18-.07-.49,0-.67,1.97.02,3.93,0,5.87-.08.02-.07.05-.07.08,0,.04-.89.06-1.78.08-2.69,1.1,0,2.2-.03,3.28-.07.37,0,1.88-.07,2.1,0Z"/>
  <path class="cls-156" d="M78.81,85.6l.19.05c0,.91-.02,1.83-.03,2.76l-2.64-.08c-.08,0-.11-.05-.11-.13,0-.03,0-.06,0-.08.06-.53.07-1.07,0-1.59,0-.31,0-.62,0-.92.86.02,1.74-.02,2.6,0Z"/>
  <path class="cls-11" d="M78.81,85.6c.08,0,.17,0,.25,0v2.85s-2.85,0-2.85,0c0-.08,0-.17,0-.25l2.69.17c.02-.66-.02-1.32,0-1.98,0-.28.25-.64-.08-.79Z"/>
  <path class="cls-99" d="M75.96,88.37c.02-.07.05-.07.08,0h.08s0,.06,0,.08c-1,.08-2.02.05-3.02,0-.02.07-.05.07-.08,0,.02-.03.07-.06.08-.08.95-.05,1.9-.07,2.85,0Z"/>
  <path class="cls-214" d="M79.06,85.52s-.06,0-.08,0v-.08c-.07-.02-.07-.05,0-.08-.03-.95-.03-1.9,0-2.85.03,0,.06,0,.08,0,.06,1.01.06,2.02,0,3.02Z"/>
  <path class="cls-70" d="M79.14,85.52s-.06,0-.08,0c.12-.86-.17-2.22,0-3.02h.08v3.02Z"/>
  <path class="cls-64" d="M76.12,88.46s0,.06,0,.08c-.03,0-.06,0-.08,0-.91.07-1.93.07-2.85,0-.02.07-.05.07-.08,0-.06-.02-.05-.05,0-.08,1-.04,2.02.03,3.02,0Z"/>
  <path class="cls-11" d="M76.21,88.12c-.03-.51,0-1.08,0-1.59.14.45.14,1.14,0,1.59Z"/>
  <path class="cls-103" d="M76.04,28.47c.02.39,0,.79,0,1.17-.95.06-1.95.08-2.89.02l.04-.1c.23-.32-.05-2.32.13-2.44.32-.04,2.36-.17,2.47-.11.29.16.14.93.16,1.26,0,.11.09.19.09.2Z"/>
  <path class="cls-162" d="M73.19,29.56c-.02.12.14.08.21.09.85.06,1.78-.05,2.64,0,0,.03,0,.06,0,.08-.98.11-1.96.13-2.94,0,0-.42,0-.84,0-1.26s-.02-.81,0-1.22c0-.1-.06-.31.08-.29v2.6Z"/>
  <path class="cls-259" d="M79.06,32.58v6.29c.1.1,2.4-.06,2.82,0,.07,0,.13,0,.12.09-.02.08-.04.07-.08,0-.94.09-1.91.08-2.85,0-.03-.01-.05-.06-.08-.08v-6.12c0-.08-.05-.08-.12-.09-.8-.1-1.81.11-2.61,0-.07,0-.13,0-.12-.09h2.94Z"/>
  <path class="cls-88" d="M82.16,38.96c.22.03.21.1,0,.17.03,1.76.03,3.52,0,5.29-.02.05-.05.05-.08,0-.07-1.76-.07-3.68,0-5.45.02,0,.06-.08.08-.08.07.02.07.05,0,.08Z"/>
  <path class="cls-170" d="M82.08,44.41s-.05.05-.08,0c-.14-1.75-.07-3.68,0-5.45.03,0,.06,0,.08,0v5.45Z"/>
  <path class="cls-278" d="M79.4,32.66c.07,0,.17.03.17.08.03,1.87,0,3.91-.08,5.78l-.17.1c0-.07.03-.16.08-.17.4-.05,1.85-.06,2.23,0l.12.17-.17-.08v-5.48l.17-.1c.02-.14-.06-.14-.07-.08-.03.31-.56-.12-.1-.21.11,0,.22,0,.34,0-.03,1.76.03,3.53,0,5.29,0,.25,0,.5,0,.76h-2.68c.04-1.84-.05-3.7,0-5.54,0-.17,0-.34,0-.5.06,0,.11,0,.17,0Z"/>
  <path class="cls-168" d="M55.15,91.39c3.87-.08,8-.06,11.91,0,.01,1.95,0,3.91-.01,5.85l.1.11c.95-.05,1.92-.07,2.91-.05.12,0,.09.22.03.3.09,1.73.05,3.47,0,5.2-.03,0-.06,0-.08,0l-14.89-.06c.03-.98.02-1.94-.04-2.88,0,.99-.02,1.97-.08,2.94h-.08c0-.93.05-1.93,0-2.85-.16-.03-.15-.09,0-.17-1.94,0-3.87-.02-5.79-.08-.07-.69-.07-1.48,0-2.18,0-.05.02-.09.04-.09.27-.07,2.4-.1,2.68-.04.02,0,.04.02.05.05.03.01.07.18.17.17.01-.11-.02-.24,0-.34.04-.96.05-1.93.05-2.9.19.02.37,0,.54-.04.7-.02,1.56.08,2.23,0,.12-.01.12,0,.2-.09.04-.95.07-1.9.08-2.85Z"/>
  <path class="cls-60" d="M51.88,97.35c-.92,0-1.86.03-2.8.11l-.06-.11c.2.03.22.09.04.18v2.13c.1.06.09.1-.04.12.03-.19.09-.23.13-.04l5.75.04c0,.06,0,.11,0,.17h-5.96c-.09-.85.06-1.82,0-2.69.85-.02,1.71.03,2.56,0,.12,0,.34.06.38-.08,0,.02.14.09,0,.17Z"/>
  <path class="cls-49" d="M54.81,100.12l-5.87-.08c.64.12,5.78-.19,5.87.08Z"/>
  <path class="cls-311" d="M81.91,102.72c0,.05,0,.11,0,.17-.08,0-.17,0-.25,0-2.38.15-5.84.15-8.22,0-.07,0-.14.01-.2,0-.05,0-.04-.04-.05-.08.02-.07.05-.07.08,0l.33-.12c2.51-.06,5.05-.08,7.57-.1.23,0,.45.06.66.13.02-.07.05-.07.08,0Z"/>
  <path class="cls-315" d="M81.91,102.47c0,.08.01.17,0,.25h-.08c-.07,0-.17-.03-.17-.08-.08-1.46-.09-3.08-.07-4.54-.07-.37-.02-.62.16-.75-.06-.06-.04-.08.08-.08.12.04.08.11.09.21.16,1.29.04,3.63,0,5Z"/>
  <path class="cls-58" d="M81.83,97.27s-.05.07-.08.08l-.11.19c-.74-.05-1.47-.03-2.18.07.05.75.04,1.49-.03,2.23l-.2.03c-.04-.75-.05-1.59,0-2.35,0-.16.08-.21.08-.25.6.12,2.03-.16,2.52,0Z"/>
  <path class="cls-89" d="M81.58,32.66l-.08.17s.34-.15.33.04c0,.03-.08.06-.08.08v5.66h-2.43l.08-5.96s.06,0,.08,0c.67-.02,1.44-.04,2.1,0Z"/>
  <path class="cls-110" d="M48.6,97.27s.11-.02.15.02c.06.07,0,.23.02.32.05.75.09,1.53,0,2.27-.23-.48.03-2.36-.08-2.52-.3.18-.61.04-.92.03-.35-.01-.74,0-1.11,0-.13,0-.23.06-.32-.11.68,0,1.62-.08,2.27,0Z"/>
  <path class="cls-249" d="M51.79,97.1v.08c-.67-.09-1.54.06-2.23,0-.16-.01-.24-.08-.28-.09h2.52Z"/>
  <path class="cls-26" d="M48.77,99.87v-2.27c.12.6.11,1.26.08,1.89,0,.12.06.35-.08.38Z"/>
  <path class="cls-208" d="M51.79,29.81c.07.84.07,1.82,0,2.68-.89-.04-1.75,0-2.6.08-.03.06-.13.06-.17,0-.02.07-.05.07-.08,0v-2.77c.9-.09,1.94.07,2.85,0Z"/>
  <path class="cls-306" d="M49.02,32.66l.14.31c.07,1.95.07,3.89.02,5.84-.03.15-.13.16-.25.06-.07-.03-.07-.05,0-.08,0-.03,0-.06,0-.08.09-1.99,0-4.12,0-6.12h.08c.07.02.07.05,0,.08Z"/>
  <path class="cls-320" d="M40.38,74.11c.83-.05,1.68-.06,2.55-.04v5.3c-.09.07-.22.11-.37.11-.67-.02-1.35.03-2.01,0-.06,0-.11,0-.17,0-.08-1.77-.07-3.62,0-5.37Z"/>
  <path class="cls-38" d="M42.98,74.03c.07,1.76.07,3.68,0,5.45-.13-.01-.28,0-.42,0l.34-.13v-5.24s-2.52,0-2.52,0c-.02.07-.05.07-.08,0v-.08s.02-.08.03-.08c.76-.04,1.85-.06,2.6,0,.02,0,.04.04.06.08Z"/>
  <path class="cls-155" d="M43.07,73.86c.06.02.05.05,0,.08-.01.05-.02.09-.08.08h-2.68v-.17h2.77Z"/>
  <path class="cls-239" d="M40.38,79.48c-.14-.09-.08-.32-.09-.46-.02-1.64,0-3.28,0-4.91h.08v5.37Z"/>
  <path class="cls-103" d="M54.81,27.12c.05.82-.04,1.69,0,2.52h-2.85s0-.06,0-.08c.05-.84.06-1.69.04-2.55.28-.03,2.67-.11,2.76,0,.03.03.04.07.05.11Z"/>
  <path class="cls-101" d="M54.64,26.87c.24-.04.16.06.17.25l-2.77-.08c-.02.77.03,1.55,0,2.32,0,.11-.09.19-.09.2.06-.86-.09-1.84,0-2.68h2.68Z"/>
  <path class="cls-206" d="M55.06,29.73c.16.22-.07.37-.25.17-.86.06-1.72.07-2.59.04-.14.1-.2.09-.18-.04-.06-.02-.06-.05,0-.08.92-.02,1.85-.05,2.77-.08.08-.08.08-.08.09-.2.09-.77,0-1.84,0-2.65h.08c.02.96.04,1.91.08,2.85Z"/>
  <path class="cls-124" d="M52.04,29.81v.08c.04.9.07,1.79,0,2.68-.02.07-.05.07-.08,0-.06-.94-.08-1.91,0-2.85h.08c.07.02.07.05,0,.08Z"/>
  <path class="cls-61" d="M54.81,29.73c-.08.08-.08.08-.2.09-.8.09-1.75-.07-2.57,0v-.08c.92,0,1.85,0,2.77,0Z"/>
  <path class="cls-205" d="M76.29,29.81h2.77s0,2.68,0,2.68h-2.85v-.08c.03-.22.1-.21.17,0l.1-.17c.78.03,1.56.02,2.34-.04-.01-.13.02-.18.17-.22,0-.71-.03-1.41-.08-2.1-.02.07-.05.07-.08,0-.81.06-1.63.07-2.44,0l-.08-.09Z"/>
  <path class="cls-7" d="M78.81,29.89c-.07.18-.21.23-.39.23l-1.95.03c-.04.68-.02,1.37.04,2.04l-.13.21h-.17v-2.6h.08c.8.19,1.69.03,2.52.08Z"/>
  <path class="cls-262" d="M87.7,74.03v.08c-.05,1.65-.08,3.33-.08,5.03.04.21-.1.29-.42.26-.36-.05-.66-.02-.92.07-.06,0-.11,0-.17,0l-.16-.1c-.4.08-.71.06-.93-.07-.06-.02-.05-.05,0-.08.16-.23.1-1.1,0-1.34-.06-.02-.05-.05,0-.08.07-1.21.08-2.45.04-3.72l2.48-.06s.11,0,.17,0Z"/>
  <path class="cls-119" d="M87.7,79.4c-.31.07-.26-.04-.08-.25-.06-1.48-.02-3.08,0-4.57,0-.14-.05-.37.09-.46v5.29Z"/>
  <path class="cls-216" d="M87.7,79.4v.08c-.11-.01-.23,0-.34,0-.36,0-.73,0-1.09,0-.15-.23-.08-.16.12-.17.36-.02,1.01.14,1.22-.17,0,.09-.03.21.08.25Z"/>
  <path class="cls-208" d="M73.19,92.74c.06-1.34.07-2.69.04-4.06h2.64c.11-.02.17.05.17.2v5.12c-.89.06-1.88.07-2.81.04.02-.19,0-.37-.04-.54-.06-.02-.05-.05,0-.08.07-.19.07-.4,0-.59-.06-.02-.05-.05,0-.08Z"/>
  <path class="cls-131" d="M76.04,88.63v.25c-.08-.16-.12-.16-.29-.17-.8-.06-1.67.05-2.48,0-.03,1.25.04,2.5,0,3.74,0,.15-.09.27-.09.28-.07-1.31-.07-2.78,0-4.11.91-.07,1.93-.07,2.85,0Z"/>
  <path class="cls-131" d="M73.19,93.49c.17.07.04.46.08.5.1.1,2.42-.08,2.77,0v.08c-.91.07-1.93.07-2.85,0-.06-.19-.06-.39,0-.59Z"/>
  <path class="cls-201" d="M76.04,94.16h.08s0,.06,0,.08c-.02.07-.04.07-.08,0-.94.07-1.91.08-2.85,0-.06-.02-.05-.05,0-.08.95-.06,1.9-.06,2.85,0Z"/>
  <path class="cls-71" d="M76.04,88.54v.08h-2.85c-.06-.02-.05-.05,0-.08h2.85Z"/>
  <path class="cls-301" d="M76.04,94.08v.08c-.95,0-1.9,0-2.85,0-.06-.02-.05-.05,0-.08h2.85Z"/>
  <path class="cls-89" d="M84.85,38.96c0,1.82,0,3.64,0,5.45-.87.05-1.74.08-2.6,0-.06-1.74-.09-3.5-.08-5.29v-.17c.79-.05,1.74-.09,2.52.08.05,1.56.1,3.28,0,4.87.1-1.58.07-3.31-.03-4.92-.16.01-.27-.03-.31-.12.17,0,.37-.05.5.08Z"/>
  <path class="cls-264" d="M84.85,44.49s0,.06,0,.08c0,.57.07,1.23-.08,1.76,0-.55-.04-1.1-.12-1.64-.84.02-1.66,0-2.48-.04,0,0,0-.06,0-.08-.07-.02-.07-.05,0-.08.9-.06,1.79-.06,2.68,0Z"/>
  <path class="cls-123" d="M82.16,44.41c.02-.07.05-.07.08,0h2.6s0,.06,0,.08c-.87-.06-1.83.08-2.68,0-.09.1-.25.05-.17-.08h.17Z"/>
  <path class="cls-79" d="M72.94,26.45c-.21-.65-.01-1.43-.08-2.1h.08v2.1Z"/>
  <path class="cls-320" d="M43.49,38.87c.78.06,1.57.09,2.36.09-.07,1.72-.07,3.46,0,5.2.08.02.06.19,0,.25-.87.03-1.74.06-2.6.08-.02.07-.04.07-.08,0,0-1.72-.09-3.58,0-5.29.02-.2.1-.31.25-.34.03,0,.06,0,.08,0Z"/>
  <path class="cls-262" d="M43.23,79.65c.85.04,1.7.06,2.56.05-.02.57,0,1.14.04,1.71.02.24.05.49.08.76.07.02.06.19,0,.25-.24.21-.53,0-.67,0-.62-.06-1.29-.06-2.01,0h-.08c-.14-.73.08-1.96,0-2.77.02-.06.05-.05.08,0Z"/>
  <path class="cls-211" d="M46,82.42c.07.02.07.05,0,.08.07.02.07.05,0,.08-.03,0-.06,0-.08,0,0-.06,0-.11,0-.17v-.25c-.06-.84-.06-1.68,0-2.52.02-.06.05-.05.08,0,.14.9.07,1.88,0,2.77Z"/>
  <path class="cls-232" d="M43.23,82.42l2.6-.17-.59.17c-.67-.04-1.35.03-2.01,0Z"/>
  <path class="cls-213" d="M84.85,79.65v.08c-.04.87-.07,1.76-.08,2.68-.82.23-1.82-.2-2.6.08-.07-.91-.07-1.93,0-2.85.89-.06,1.79-.06,2.68,0Z"/>
  <path class="cls-218" d="M82.08,82.5s-.07.02-.08.08h-2.77v-.08c.91-.05,1.81-.06,2.73-.04-.03-.94-.02-1.88.04-2.81.02-.06.05-.05.08,0,.07.91.07,1.93,0,2.85Z"/>
  <path class="cls-269" d="M82.16,82.5s-.07-.01-.08,0v-2.85c.02-.06.05-.05.08,0v2.85Z"/>
  <path class="cls-149" d="M84.85,82.42h-.08c0-.74,0-1.48,0-2.22,0-.14-.05-.37.09-.46,0,.88.05,1.82,0,2.68Z"/>
  <path class="cls-156" d="M78.89,94.25c.1.38.11.79.03,1.24-.04.52.01.97.14,1.36,0,.03,0,.06,0,.08-.02.06.03.16-.08.17-.87-.05-1.77-.08-2.68-.08-.07-.8-.07-1.74,0-2.56l-.04-.09c.8-.06,1.63-.1,2.47-.12.06,0,.11,0,.17,0Z"/>
  <path class="cls-13" d="M79.14,97.52c.1.79.1,1.64,0,2.43-1.9.07-3.8.05-5.71,0h-.34v-.08c1.95-.05,3.91-.06,5.9-.04,0-.83.02-1.66.06-2.48-.07-.03-.07-.06,0-.08.11.1.07.13.08.25Z"/>
  <path class="cls-11" d="M76.8,94.25c.64,0,1.29-.02,1.93,0-.29.27-2.43-.11-2.43.21v2.56c.74,0,1.48-.01,2.22,0,.14,0,.37-.05.46.09h-2.77c-.12-.9-.07-1.94,0-2.85.2,0,.39,0,.59,0Z"/>
  <path class="cls-25" d="M76.21,97.1v.08c-.02.06-.05.06-.08,0-.12-.95-.07-1.98,0-2.94.03,0,.06,0,.08,0v2.85Z"/>
  <path class="cls-295" d="M79.06,97.27c-.97.06-1.97.09-2.94,0-.06-.03-.06-.05,0-.08h.08c.84.07,1.83-.09,2.65,0,.12.01.12.01.2.09Z"/>
  <path class="cls-324" d="M79.23,99.87c.12.13.07.17-.08.08-.06-.78.07-1.66,0-2.43h.08c-.03.67.11,1.76,0,2.35Z"/>
  <path class="cls-103" d="M81.75,97.35l.08,5.37c-2.82.19-5.71.03-8.56.08-.04-.41-.07-.83-.08-1.26,0-.03,0-.06,0-.08.07-.16.07-.34,0-.5,0-.06,0-.11,0-.17l.04-.71,5.83-.05c0-.05.03-.08.08-.08.02-.03.08-.05.08-.08.22-.31-.02-2.32.09-2.43.18,0,.36-.06.54-.08.47-.05,1.54.11,1.88,0Z"/>
  <path class="cls-140" d="M73.44,100.04c1.87-.09,3.75-.05,5.62,0l-5.79.08-.08.67c0-.25,0-.5,0-.76.08,0,.17,0,.25,0Z"/>
  <path class="cls-215" d="M79.14,99.95s-.06.06-.08.08c-1.87.04-3.75-.05-5.62,0v-.08h5.71Z"/>
  <path class="cls-140" d="M73.27,102.8h-.08c-.06-.2,0-.96,0-1.26.19.35.04.86.08,1.26Z"/>
  <path class="cls-140" d="M73.19,101.46c0-.17,0-.34,0-.5.14.08.13.42,0,.5Z"/>
  <path class="cls-277" d="M45.92,38.87s.06,0,.08,0c.07.02.07.05,0,.08-.09,1.71-.15,3.44-.17,5.2l-.12-5.12c-.28-.25-.21.3-.55.17l.08-.17c-.46-.04-.96-.09-1.41-.02l-.35-.15c.79-.04,1.63,0,2.43,0Z"/>
  <path class="cls-277" d="M43.4,38.87l-.25.34c0-.11,0-.22,0-.34.08,0,.17,0,.25,0Z"/>
  <path class="cls-300" d="M55.15,103.06h17.62s0,.06,0,.08l-.06.17h-17.43c-.04.06-.11.12-.21.17h-.08c0-.19-.09-.47.17-.42Z"/>
  <path class="cls-260" d="M46,79.56c.08,0,.07.04,0,.08-.02,0-.05,0-.08,0-.02.07-.05.07-.08,0-.87.06-1.73.06-2.6,0h-.08s0-.06,0-.08c.95-.03,1.9-.03,2.85,0Z"/>
  <path class="cls-210" d="M48.94,38.79s0,.06,0,.08c-.98.06-1.96.06-2.94,0,.04-.08.03-.07.12-.09.83-.12,1.95.1,2.81,0Z"/>
  <path class="cls-176" d="M51.96,32.58c-.03.07-.05.07-.08,0-.07-.92-.07-1.85,0-2.77,0-.03,0-.06,0-.08.03,0,.06,0,.08,0-.02.95.02,1.9,0,2.85Z"/>
  <path class="cls-217" d="M51.88,32.58s-.06.05-.08,0c-.07-.02-.07-.05,0-.08v-2.68h.08c0,.92,0,1.85,0,2.77Z"/>
  <path class="cls-222" d="M84.93,79.48s0,.06,0,.08c-.03,0-.06,0-.08,0-.95.07-1.9.07-2.85,0,0-.03,0-.06,0-.08.94-.07,1.99-.07,2.94,0Z"/>
  <path class="cls-274" d="M84.85,79.56v.08h-2.85c-.05-.02-.05-.05,0-.08.95,0,1.9,0,2.85,0Z"/>
  <path class="cls-45" d="M82,79.65c-.02.95.02,1.9,0,2.85-.92.01-1.85-.02-2.77,0-.03,0-.06,0-.08,0s-.06,0-.08,0c0-.04.05-.06.08-.08.9-.04,1.81-.06,2.71-.04,0-.33.01-.65.06-.97,0-.53-.07-1.23,0-1.72,0-.07,0-.13.09-.12,0,.03,0,.06,0,.08Z"/>
  <path class="cls-109" d="M81.75,82.67c-.18.22-.47.31-.87.26h-1.4s0,2.31,0,2.31l-.17.12c-.02.06-.05.05-.08,0v-2.68h2.52Z"/>
  <path class="cls-204" d="M81.91,85.44h-2.68v-.08h.08c.04-.08.1-.15.18-.18.1-.04,1.81,0,2.06.03l.19.15c.05-.18.11-.21.17-.08,0,.05,0,.12,0,.17Z"/>
  <path class="cls-148" d="M49.02,84.68c0,.08,0,.17,0,.25,0,.15.05.28.13.38l5.61.04.06.08h-5.87c-.07-.92-.05-1.85,0-2.77,0-.03,0-.06,0-.08-.07-.02-.07-.05,0-.08.03,0,.07,0,.08,0,.09.72.06,1.46,0,2.18Z"/>
  <path class="cls-227" d="M48.94,82.67c.02.92,0,1.85,0,2.77v.08s-.06,0-.08,0c0-.77,0-1.54,0-2.31,0-.14.05-.37-.09-.46v-.08h.17Z"/>
  <path class="cls-141" d="M48.94,82.5s0,.06,0,.08c-.98,0-1.96,0-2.94,0v-.08c.98-.08,1.96-.08,2.94,0Z"/>
  <path class="cls-103" d="M81.75,82.67c.16-.03.19.01.17.17-.09.07-.12.18-.09.32v2.11s-.07.09-.07.09c-.74.1-1.67-.07-2.43,0v-2.6c.81-.03,1.65.08,2.43-.08Z"/>
  <path class="cls-321" d="M84.35,38.87l.42.08c-.05,1.55.06,3.11,0,4.66,0,.1.06.31-.08.29v-4.87l-2.52-.08v-.08c.72-.01,1.46-.02,2.18,0Z"/>
  <path class="cls-156" d="M49.28,94.25c.53.07,1.07.06,1.59,0,.06,0,.11,0,.17,0,.15.01.43.17.67.08v2.69h-2.6v-2.77h.17Z"/>
  <path class="cls-250" d="M50.87,94.25c-.45.14-1.14.14-1.59,0,.52,0,1.08-.03,1.59,0Z"/>
  <path class="cls-11" d="M79.06,94.25v.67c-.07.39-.07.79,0,1.17,0,.06,0,.11,0,.17-.07.16-.06.34,0,.5,0,.03,0,.06,0,.08-.23.15-.16.08-.17-.12-.04-.82.02-1.66,0-2.48.05,0,.12,0,.17,0Z"/>
  <path class="cls-156" d="M79.06,96.09c-.14-.28-.14-.88,0-1.17,0,.39,0,.78,0,1.17Z"/>
  <path class="cls-156" d="M79.06,96.76c-.14-.08-.13-.42,0-.5,0,.17.01.34,0,.5Z"/>
  <path class="cls-316" d="M81.91,82.84c-.02.81.02,1.62,0,2.43-.05.02-.12.08-.17.08.07-.75-.09-1.66,0-2.39.02-.12.07-.26.17-.12Z"/>
  <path class="cls-265" d="M43.15,73.86c.03,1.82.05,3.66.08,5.52.85.09,1.76.12,2.72.1l.05.09c-.95,0-1.9,0-2.85,0-.02-.06-.02-.07-.08-.08-.07-1.78-.07-3.73,0-5.54v-.08h.08Z"/>
  <path class="cls-274" d="M43.07,79.48s-.05,0-.08,0v-5.45l.08-.08v5.54Z"/>
  <path class="cls-21" d="M85.02,74.03c.2.04.22.07.04.1.03,1.24.02,2.47-.04,3.68v.08s.08.02.08.04c.03.36.04,1.02-.08,1.3v.08c.22.06.22.09,0,.17-.03,0-.06,0-.08,0-.07-.02-.07-.04,0-.08-.08-1.82-.11-3.64,0-5.45.05,0,.08.08.08.08Z"/>
  <path class="cls-216" d="M85.02,79.31c.23.17.95-.11,1.09,0,.01.01,0,.12,0,.17-.36,0-.73,0-1.09,0v-.17Z"/>
  <path class="cls-106" d="M66.98,27.04c.02.88.05,1.77.08,2.68l.15.08c.98-.08,1.94-.07,2.89.04,0,1.94.03,3.88.06,5.84.98.04,1.96.07,2.94.08.07.02.07.05,0,.08-.97.02-1.92.05-2.85.08.9-.09,1.87-.06,2.77,0,.05,7.29.04,14.93,0,22.26,0,.02-.04.04-.08.06-.05.14-.12.14-.17,0-.83-.08-1.77-.09-2.6,0,.08,0,.07.04,0,.08.06.99.11,2.03,0,3.02,0,0-.08,0-.08,0q-.05-.13,0,0v.08h-26.43l-.38-.1c-.02-5.57,0-11.13.04-16.68.02-.07.05-.07.08,0,.64.07,1.29.08,1.93,0l.03-.09c.3.04.55-.01.73-.16-.07-1.82-.07-3.64,0-5.45.02-.06.05-.05.08,0,.92.08,1.85.08,2.77,0-.07-.02-.07-.05,0-.08.12,0,.08-.12.09-.21.23-1.83-.18-4.12,0-6,.95,0,1.91-.04,2.85-.08.03,0,.06,0,.08,0,.03,0,.07,0,.08,0,.04-.87.06-1.76.05-2.64.91.03,1.82.01,2.72-.04.09-.03.2-.08.25-.17.02-.93.05-1.85.08-2.77.02-.05.05-.05.08,0,3.93,0,7.84.02,11.75.08Z"/>
  <path class="cls-293" d="M73.1,35.68l.13.08.04,21.95c-.07.8-.21.8-1.01.67.18,0,.35-.09.5-.13.05-.01.12.01.17,0,.05-.18.08-.22.08-.07,0-7.44.02-14.89.08-22.33v-.08c-.07-.02-.07-.05,0-.08Z"/>
  <path class="cls-272" d="M82.16,44.66h2.6c0,.56,0,1.12,0,1.68.03,5.03-.02,10.07,0,15.1-.18-.02-.4,0-.59,0l.5-.08v-16.61s-2.69,0-2.69,0c-.03-.15.13-.05.17-.08Z"/>
  <path class="cls-133" d="M70.33,64.38l11.52-.08.06.08c.02-.07.05-.07.08,0,.18.18-.37.16-.5.08-3.77.09-7.56.06-11.33,0-.06-.03-.06-.06,0-.08.02-.07.05-.07.08,0h.08Z"/>
  <path class="cls-154" d="M81.91,64.38h-11.58l11.58-.17c.09.01.07.12,0,.17Z"/>
  <path class="cls-237" d="M70.08,29.73s.07,0,.08,0c.08,1.99.08,3.98,0,5.96-.22-.13-.07-.58-.08-.88-.03-1.05,0-2.13,0-3.18,0-.26.01-1.65-.04-1.73-.14-.2-2.42-.01-2.85-.02-.1-.02-.1-.08-.13-.15,0-.08.04-.07.08,0,.03-.04.07-.08.1-.08.94,0,1.89.04,2.83.08Z"/>
  <path class="cls-67" d="M70.17,29.73c.27.13-.03,5.26.08,5.96h2.85s0,.08,0,.08c-.87-.09-1.98.13-2.82,0-.15-.02-.12-.08-.12-.09v-5.96Z"/>
  <path class="cls-236" d="M76.04,29.73c.02.79,0,1.6,0,2.39,0,.14.05.37-.09.46-.03-.85-.06-1.7-.07-2.56l-.1-.12c-.06,0-.11,0-.17,0-.83.05-1.69.1-2.52,0-.12-.1,0-.11,0-.17.98,0,1.96,0,2.94,0Z"/>
  <path class="cls-157" d="M67.31,26.96c1.87,0,3.75,0,5.62,0v2.77s-.17-.04-.17-.04c.12-.32.14-2.51,0-2.61l-5.46-.12Z"/>
  <path class="cls-63" d="M82,44.41c0,.11.09.08.17.08v.08c-.29.01-.23.05-.25-.21-.13-1.6,0-3.52,0-5.16-.17-.18-.17-.26,0-.25.03,0,.06,0,.08,0v5.45Z"/>
  <path class="cls-157" d="M67.23,26.96c-.09.8.12,1.83,0,2.6.17.09.08.14-.08.17-.03,0-.06,0-.08,0-.07-.93-.07-1.85,0-2.77.02-.04.05-.04.08,0,.03,0,.06,0,.08,0Z"/>
  <path class="cls-293" d="M72.01,58.25l.13.17h-1.89s-.06.02-.08-.08c0-.03,0-.06,0-.08.61-.07,1.24-.08,1.85,0Z"/>
  <path class="cls-59" d="M81.91,38.96v.25c-.08-.18-.1-.13-.24-.14-.62-.08-2.23.11-2.62-.11.95-.02,1.9.02,2.85,0Z"/>
  <path class="cls-62" d="M70.17,61.61c.04.93.04,1.85,0,2.77,0,.03,0,.06,0,.08.07.02.07.04,0,.08-.08,0-.08-.05-.09-.12-.11-.85.16-1.9-.08-2.73-.07-.02-.07-.05,0-.08-.05-.04-.02-.07.08-.08h.08s0,.05,0,.08Z"/>
  <path class="cls-199" d="M70.25,58.42c.07.71.04,1.83,0,2.56,0,.14.06.28-.09.38.07-.97-.1-2.07,0-3.02.04,0,.08.05.08.08Z"/>
  <path class="cls-56" d="M70.08,29.73c-.88-.12-2.02.09-2.94,0,0-.06.08-.14.08-.17l2.85.17Z"/>
  <path class="cls-39" d="M82,61.94c.08.8.1,1.64,0,2.43h-.08v-.17c0-.71,0-1.43,0-2.14,0-.14-.05-.37.09-.46,0,.11,0,.22,0,.34Z"/>
  <path class="cls-267" d="M70.25,64.38h-.08c-.04-.9.07-1.88,0-2.77l.08,2.77Z"/>
  <path class="cls-95" d="M75.79,29.89c.06,0,.11,0,.17,0v2.69c-.14-.03-.08-.26-.08-.38-.03-.76.09-1.57-.08-2.31Z"/>
  <path class="cls-112" d="M72.77,58.25c-.25,0-.5,0-.76,0-.61,0-1.23,0-1.85,0,.09-.14.32-.08.46-.09.58,0,1.18-.02,1.76,0,.12,0,.35-.06.38.08Z"/>
  <path class="cls-95" d="M75.62,29.89c-.09.14-.32.08-.46.09-.56,0-1.23.05-1.77,0-.15-.01-.16.01-.29-.09.83.03,1.68-.04,2.52,0Z"/>
  <path class="cls-80" d="M82,61.94c.22.31,0,2.43.08,2.52l5.71.08c-1.83.07-3.72-.09-5.54,0-.01.13-.04.14-.08.04l-.08,2.64c-.02.07-.05.07-.08,0-.05-.86-.06-1.74-.04-2.64-.17.01-.32,0-.46-.05-.07-.02-.07-.05,0-.08.15,0,.3.02.46,0,.05,0,.04-.04.05-.08.1-.29-.02-1.95,0-2.43Z"/>
  <path class="cls-46" d="M67.15,26.96s-.06,0-.08,0c-.02.07-.04.07-.08,0-3.92.03-7.83.03-11.75,0h-.08c-.06.89-.09,1.82-.08,2.77-.14-.03-.08-.26-.08-.38-.03-.82.02-1.65,0-2.48,3.9.04,7.81-.05,11.71,0,.14,0,.37-.05.46.09Z"/>
  <path class="cls-66" d="M76.12,67.48c.07,2.93.07,6.1,0,9.06-.02.07-.12.06-.17,0v-8.98c-1.62,0-3.25,0-4.87,0-6.77.03-13.54.03-20.3,0-.53,0-1.49.09-1.93-.08,9.09-.01,18.18.02,27.27,0Z"/>
  <path class="cls-289" d="M71.09,67.57h-20.3c6.76.07,13.54-.01,20.3,0Z"/>
  <path class="cls-55" d="M40.47,73.77c-.06,0-.18.04-.17-.05v-9.1s8.39,0,8.39,0c-.11.15,0,.25,0,.33-.3.24-.11-.2-.17-.25h-8.14s.08,9.06.08,9.06Z"/>
  <path class="cls-182" d="M67.06,85.52c0,.99.04,2,.11,3.01-3.98-.01-7.99-.03-12.02-.07-.02.07-.05.07-.08,0v-.08c.02-.07.05-.07.08,0h11.83c.1-.1-.12-2.34.08-2.85Z"/>
  <path class="cls-138" d="M67.06,88.63h-12c0-.06,0-.11,0-.17.01.01.06-.01.08,0l11.86.08.06.08Z"/>
  <path class="cls-23" d="M73.1,82.67c-.73.17-2.05-.12-2.85,0v2.94h-3.02v2.85l-.18.03c.04-.98.07-1.97.1-2.97.06-.08.14-.12.24-.1h2.7s-.01-2.73-.01-2.73l.1-.11s0-.06,0-.08h.08c1.01.06,1.97.07,2.89.04l-.04.12Z"/>
  <path class="cls-76" d="M70.17,82.58c-.1.92.07,2,0,2.94-.97.07-2.07-.1-3.02,0-.03.07-.06.07-.08,0,.02-.04-.05-.15.05-.17h2.88c.02-.82-.03-1.65,0-2.48,0-.16-.09-.34.17-.29Z"/>
  <path class="cls-52" d="M43.23,73.86c.03,1.85.06,3.69.08,5.54.02,0,.05,0,.08,0,.87-.07,1.73-.07,2.6,0,.03.01.1-.02.15.02.04.04,0,.12.02.15.07.86.05,1.75,0,2.6h-.09c.02-.85,0-1.69-.08-2.52,0-.03,0-.06,0-.08l-2.85-.08v-5.62s0-.08,0-.08c.04,0,.06.05.08.08Z"/>
  <path class="cls-286" d="M51.88,97.35v.08c-.16-.05-2.01-.03-2.31,0-.16.01-.3.05-.46.09v2.18l5.79.08h-5.87v-2.43h2.85Z"/>
  <path class="cls-198" d="M73.19,76.54c.07.02.07.05,0,.08.04.03.08.05.08.08,0,.03-.13.53-.16.59-.04,1.62-.04,3.24,0,4.87.07.02.07.05,0,.08.1.23.13.38-.15.29-.9.04-1.8.02-2.7-.04-.03,0-.06,0-.08,0l2.85-.08v-5.82c-.01-.09.11-.04.17-.05Z"/>
  <path class="cls-115" d="M49.02,84.93l.13.34h5.83s-.17.16-.17.16l-5.79-.08c0-.14,0-.28,0-.42Z"/>
  <path class="cls-302" d="M46.17,79.56c.19.51-.02,2.67.08,2.77.74,0,1.48,0,2.23,0,.14,0,.37-.05.46.09-.95.06-1.9.06-2.85,0-.08-.06-.04-.28.08-.25v-2.6Z"/>
  <path class="cls-68" d="M43.32,79.4c-.25-.12.02-4.88-.08-5.54.28.35-.04,4.77.08,5.54Z"/>
  <path class="cls-223" d="M52.63,94.33c-.07.17-.46.04-.5.08-.09.09.03,2.19,0,2.57-.01.16-.08.22-.09.28v-2.94c.19,0,.39,0,.59,0Z"/>
  <path class="cls-136" d="M75.96,76.54h.17c.06.02.05.05,0,.08-.8.1-1.65.13-2.53.07-.22.04-.36.02-.4-.07v-.08c.77-.1,1.94,0,2.77,0Z"/>
  <path class="cls-276" d="M55.06,88.37s0,.06,0,.08c-.08-.08-.08-.08-.09-.2-.07-.67,0-1.58,0-2.27,0-.14-.05-.37.09-.46.08.95.06,1.9,0,2.85Z"/>
  <path class="cls-318" d="M48.94,82.42s0,.06,0,.08c-.89-.12-2.02.09-2.94,0v-.08c.02-.07.05-.07.08,0h2.85Z"/>
  <path class="cls-314" d="M55.06,91.39c.07.95.07,1.9,0,2.85-.14-.03-.08-.26-.08-.38-.03-.84,0-1.71,0-2.56.02-.07.05-.07.08,0,.07.02.07.04,0,.08Z"/>
  <path class="cls-97" d="M55.15,88.37h-.08c0-.95,0-1.9,0-2.85.14.03.08.26.08.38.03.82-.02,1.65,0,2.48Z"/>
  <path class="cls-125" d="M55.06,88.71c.07.78.07,1.57,0,2.35,0,.03,0,.06,0,.08.07.02.07.04,0,.08,0,.03,0,.06,0,.08h-.08c0-.77-.09-1.84,0-2.56,0-.07,0-.13.09-.12,0,.03,0,.06,0,.08Z"/>
  <path class="cls-68" d="M46,79.4c-.81-.08-1.82.11-2.6,0,.09-.14.32-.08.46-.09.55,0,1.69-.09,2.14.09Z"/>
  <path class="cls-115" d="M49.02,84.68c-.02-.73.01-1.46,0-2.18.12.06.08.1.09.2.04.46,0,1.04,0,1.52,0,.14.05.37-.09.46Z"/>
  <path class="cls-168" d="M51.96,96.26c-.02.07-.05.07-.08,0,0-.2,0-.39,0-.59.14.11.09.4.08.59Z"/>
  <path class="cls-5" d="M51.88,96.68c0-.14,0-.28,0-.42h.08c0,.13.05.35-.08.42Z"/>
  <path class="cls-5" d="M51.88,94.83v-.42c.13.06.13.36,0,.42Z"/>
  <path class="cls-283" d="M55.06,99.87c.14.03.08.26.08.38.03.82-.02,1.65,0,2.48l14.85.08c-4.98.02-9.96,0-14.93,0-.04-.96-.04-1.94,0-2.94Z"/>
  <path class="cls-245" d="M70.17,102.8s-.06,0-.08,0c-.04-1.73.05-3.47,0-5.2.02-.07.05-.07.08,0,.05,1.73.05,3.47,0,5.2Z"/>
  <polygon class="cls-27" points="55.06 102.8 54.98 102.8 55.06 99.87 55.06 102.8"/>
  <path class="cls-75" d="M70.33,102.72v.08c-.06,0-.11,0-.17,0v-5.2c-.05-.1-.13-.35,0-.34-.08-.13.14-.28.13-.06-.03,1.86-.02,3.69.04,5.51Z"/>
  <path class="cls-326" d="M73.02,102.3h-.08c.02-.7-.08-1.57,0-2.23.01-.12.02-.12.09-.2v2.43Z"/>
  <path class="cls-98" d="M79.06,97.35c.08.79-.06,1.71,0,2.52h-5.96s-.08,0-.08,0c.02-.03.04-.07.08-.08l5.77-.04c-.11-.03-.08-.06.06-.08v-1.99c-.08-.2-.07-.31.04-.32.02-.06.05-.05.08,0Z"/>
  <path class="cls-156" d="M72.77,103.14c.2.84.02,1.82.08,2.68h-17.79c.03-.78-.05-1.57,0-2.35,0-.1-.04-.32.05-.34h17.65Z"/>
  <path class="cls-87" d="M48.94,64.55s.07,0,.08.04v2.56s32.81,0,32.81,0c.06.02.05.05,0,.08h-32.89s-.08-.02-.08-.03c-.03-.85-.04-1.85.08-2.66Z"/>
  <path class="cls-271" d="M70.08,61.52l-.08.08c-8.82.07-18.08.07-26.93,0,0-.02,0-.05,0-.08h27.02Z"/>
  <path class="cls-143" d="M70,61.61v.08c-8.84.07-18.01.08-26.85,0-.03-.02-.07-.04-.08-.08h26.93Z"/>
  <path class="cls-78" d="M70,61.69l-.38.08h-26.19c-.15.04-.19-.02-.29-.08h26.85Z"/>
  <path class="cls-10" d="M81.49,64.55c.17,0,.34,0,.5,0v2.69c-.02.07-.05.07-.08,0-.02-.85-.05-1.7-.1-2.56l-11.64-.04s0-.06,0-.08c3.77-.08,7.56-.06,11.33,0Z"/>
  <polygon class="cls-233" points="70.17 64.63 81.91 64.63 81.91 67.23 81.83 67.23 81.83 67.15 81.83 64.71 70.17 64.63"/>
  <path class="cls-180" d="M48.77,64.38c-.03.14-.26.08-.38.08-2.74.11-5.52-.08-8.26,0,.02-.02.05-.07.08-.08h8.56Z"/>
  <path class="cls-147" d="M48.94,67.23c.08.09.02.12-.17.08v-2.68s.12-.09.17-.08v2.68Z"/>
  <path class="cls-34" d="M37.53,61.02c0-.2,0-.39,0-.59.14.11.14.48,0,.59Z"/>
  <path class="cls-161" d="M43.32,44.66v16.65s.34.13.34.13h-.42c-.07-5.47-.08-11.28,0-16.78.02-.07.05-.07.08,0Z"/>
  <path class="cls-116" d="M43.23,44.66v16.78h-.08c0-5.65,0-11.3,0-16.95.03,0,.06,0,.08,0,.22.03.21.09,0,.17Z"/>
  <path class="cls-167" d="M81.91,67.23h.17c.06.02.06.05,0,.08-.03.1-.17.12-.26.13-.37.03-.77.04-1.15.04-1.41,0-2.81-.01-4.22-.04-.11,0-.21-.02-.32-.04-9.05,0-18.1,0-27.15,0l-.21-.09.17-.08h32.97Z"/>
  <path class="cls-51" d="M82.08,67.4c-.11.05-.12.08-.28.09-1.74.13-3.81-.01-5.59,0-.02.07-.04.07-.08,0v-.08c1.81,0,3.69.07,5.5,0,.16,0,.32,0,.46-.09.06.02.06.05,0,.08Z"/>
  <path class="cls-153" d="M87.7,73.19c0,.08,0,.17,0,.25l-.08-8.81c.12.04.08.11.09.21-.09,2.77.11,5.6,0,8.35Z"/>
  <path class="cls-238" d="M85.52,64.63s-.13.09-.28.09c-.99.02-1.99-.03-2.99,0-.06.8.08,1.7,0,2.48-.01.12,0,.12-.09.2-.07-.88-.06-1.79-.01-2.68l.09-.09h3.27Z"/>
  <path class="cls-16" d="M82.25,64.55v.08c-.19.87-.03,1.86-.08,2.77-.01.01-.06-.01-.08,0v-.17c0-.89,0-1.79,0-2.69.06,0,.11,0,.17,0Z"/>
  <path class="cls-216" d="M87.53,74.03c-.78.16-1.62.06-2.43.08.02,1.13,0,2.25.03,3.38,0,.14.11.23-.11.32v-3.78c.76.1,1.73-.08,2.52,0Z"/>
  <path class="cls-328" d="M84.93,73.86v.08c0,1.82,0,3.64,0,5.45-.02.06-.05.05-.08,0-.06-1.8-.09-3.61-.08-5.45v-.08s.06,0,.08,0,.06,0,.08,0Z"/>
  <path class="cls-297" d="M76.21,68.15c.13-.15,1.03-.03,1.08.01.08.07.03.41.04.52.08.51.06.69.06,1.2,0,.46.33.71-.34.37-.54.92-.11,2.07-.25,3.07-.03.2-.2.35-.18.49,0,.05.15.04.17.1.06.21.04,1.07-.16,1.25.47.12-.13.42-.29.21-.05-.07-.03-1.43-.04-1.64,0-.11-.09-.19-.09-.2-.07-.06-.06-.19,0-.25.08-.64.08-1.28,0-1.93-.07-1.06-.07-2.13,0-3.19Z"/>
  <path class="cls-184" d="M67.15,91.31c.14,1.97.11,4.04,0,5.96.07.02.07.05,0,.08-.06,0-.18.04-.17-.05v-5.91s-11.83,0-11.83,0c-.02.07-.05.07-.08,0,0-.03,0-.06,0-.08h12.08Z"/>
  <path class="cls-282" d="M67.23,88.46s.14.06.17.14c.08.33-.05.3-.33.28v-.25s-11.91-.17-11.91-.17h11.91s0-2.94,0-2.94c.03,0,.06,0,.08,0,.08.86-.11,1.9,0,2.74.02.14.04.12.09.2Z"/>
  <path class="cls-241" d="M76.12,76.63c.02-.07.05-.07.08,0-.04.16-.15.15-.29.17-.39.05-2.55-.1-2.65,0v5.71c-.12.12-.18.04-.17-.25,0-.03,0-.06,0-.08-.04-1.62-.04-3.24,0-4.87,0-.22-.06-.5.08-.67h2.94Z"/>
  <path class="cls-37" d="M55.06,91.14l12,.04-12,.04s0-.06,0-.08Z"/>
  <path class="cls-28" d="M78.98,97.35v2.43s-5.87,0-5.87,0l5.79-.08v-2.06s-.09-.2-.14-.21c-.54-.13-2.17.18-2.54-.08.88-.05,1.88-.08,2.77,0Z"/>
  <path class="cls-142" d="M76.21,68.15c0,1.06-.01,2.13,0,3.19.05.64.11,1.3,0,1.93,0,.08,0,.17,0,.25v3.1h-.08v-9.15s.06,0,.08,0v.67Z"/>
  <path class="cls-305" d="M84.77,73.94c.04,1.83.04,3.65,0,5.45-.92.06-1.85.06-2.77,0,.09-.14.32-.08.46-.09.74,0,1.48,0,2.23,0l.08-5.45v.08Z"/>
  <path class="cls-91" d="M70.17,97.1c.07-.05-.06-.26.12-.17.22.11.28.4.25.62-.01.08,0,.24-.12.21l-.08-.59v5.54c-.09-.08-.09-.18-.09-.28-.08-1.71.07-3.49,0-5.21-.03-.12-.08.04-.08.04-.98.06-1.96.06-2.94,0-.07-.02-.07-.05,0-.08.98-.02,1.96-.05,2.94-.08Z"/>
  <path class="cls-169" d="M67.23,97.1c.07.02.07.05,0,.08v.08c-.02.06-.05.06-.08,0-.17-.16,0-.4,0-.63.06-1.77-.05-3.56,0-5.33.12,0,.08.12.09.21.19,1.55,0,3.94,0,5.58Z"/>
  <path class="cls-303" d="M73.02,94.25s-.06,0-.08,0v-5.79s.06,0,.08,0c.07,1.87.07,3.9,0,5.79Z"/>
  <path class="cls-144" d="M73.1,88.54c.07,1.84.07,3.85,0,5.71-.03,0-.06,0-.08,0v-5.79s.06,0,.08,0v.08Z"/>
  <path class="cls-246" d="M75.96,88.37h-2.85s-.01-.12,0-.17c.88.19,1.86.03,2.77.09l.08-2.77c.08.93.06,1.93,0,2.85Z"/>
  <path class="cls-207" d="M78.98,85.35c-.91.06-1.92.08-2.85,0l2.77-.08.08-2.77v2.85Z"/>
  <path class="cls-317" d="M75.96,94.33c.07.94.07,1.99,0,2.94l-.08-2.85c-.09-.09-2.15.13-2.6-.08.85-.06,1.82-.07,2.68,0Z"/>
  <path class="cls-9" d="M81.91,81.41c0,.33,0,.67,0,1.01h-2.77c.08-.07.08-.07.2-.09.37-.04,2.4.09,2.48,0,.06-.06-.11-.78.08-.92Z"/>
  <path class="cls-30" d="M73.27,82.5c-.03.08-.08.15-.17.17-.09-.14-.32-.08-.46-.09-.72,0-1.48.04-2.19,0-.12,0-.18-.08-.2-.09.86-.05,1.79.07,2.65,0,.26-.02.22.04.21-.25.01.06.13.18.17.25Z"/>
  <path class="cls-113" d="M76.12,97.18s0,.06,0,.08c-.03,0-.06,0-.08,0-.07-.94-.07-1.99,0-2.94-.07-.02-.07-.05,0-.08.03,0,.06,0,.08,0,0,.9-.1,2.09,0,2.94Z"/>
  <path class="cls-47" d="M70.17,97.1c-.08.06-.06.08-.2.09-.88.07-1.85-.06-2.73,0v-.08h2.94Z"/>
  <path class="cls-280" d="M84.77,79.4c.02-.07.05-.07.08,0h.08s0,.06,0,.08h-2.94s0-.06,0-.08h2.77Z"/>
  <path class="cls-24" d="M76.04,97.27s-.06,0-.08,0v-2.94c.02-.06.05-.05.08,0v2.94Z"/>
  <path class="cls-196" d="M76.04,94.25v.08h-2.77s-.14.01-.17-.08c.02-.07.04-.07.08,0,.95.02,1.9,0,2.85,0Z"/>
  <path class="cls-313" d="M79.06,97.27s0,.06,0,.08h-2.85s-.07-.04-.08-.08c.97.04,1.96-.03,2.94,0Z"/>
  <path class="cls-129" d="M76.04,88.37h-.08v-2.85c.14.03.08.26.08.38.03.82-.02,1.65,0,2.48Z"/>
  <path class="cls-29" d="M78.98,85.35v.08c-.82-.02-1.65.03-2.48,0-.12,0-.35.06-.38-.08h2.85Z"/>
  <path class="cls-190" d="M55.06,91.06c0-.78,0-1.57,0-2.35.15.58.09,1.28.09,1.89,0,.14.05.37-.09.46Z"/>
  <path class="cls-260" d="M73.19,88.63v4.11s0,.06,0,.08c.07.19.07.4,0,.59,0,.03,0,.06,0,.08v.76s-.06,0-.08,0v-5.71h.08v.08Z"/>
  <path class="cls-1" d="M82.25,44.41h-.08v-5.29l.08,5.29Z"/>
  <path class="cls-287" d="M70.17,97.27v.34h-.08c0-.08,0-.17,0-.25-.11-.1-2.5.06-2.94,0v-.08h.08c.98,0,1.96.01,2.94,0Z"/>
  <path class="cls-43" d="M55.06,94.25c0-.95,0-1.9,0-2.85h.08c-.07.84.1,1.83,0,2.65-.01.12,0,.12-.09.2Z"/>
  <path class="cls-307" d="M51.79,32.49v.08c-.86.09-1.73.09-2.6,0,.06-.19.22-.16.37-.17.74-.05,1.49.05,2.23.09Z"/>
  <path class="cls-82" d="M49.19,32.58c.85,0,1.75.04,2.6,0,.03,0,.06,0,.08,0,0,.08-.05.08-.12.09-.83.11-1.87-.08-2.73,0v-.08h.17Z"/>
  <path class="cls-3" d="M54.81,29.89c-.69.25-1.91-.01-2.69.08-.09.09.06,2.1,0,2.48-.01.1-.02.08-.09.12v-2.68h2.77Z"/>
  <path class="cls-262" d="M78.98,31.99c0,.1.03.25-.04.34-.11.14-2.2.08-2.56.08-.19-.77-.03-1.64-.08-2.43.84-.04,1.71.09,2.52-.08.02,0,.07,0,.08,0,.05.69.08,1.39.08,2.1Z"/>
  <path class="cls-278" d="M78.98,31.99c-.19-.65-.03-1.42-.08-2.1.13.06.08.09.09.21.04.52.04,1.37,0,1.89Z"/>
  <path class="cls-216" d="M85.02,77.89c.3-.04.12.13.12.26,0,.25.04.46.05.71,0,.14.08.44-.17.38v-1.34Z"/>
  <path class="cls-131" d="M73.19,93.41c0-.2,0-.39,0-.59.14.11.14.48,0,.59Z"/>
  <path class="cls-193" d="M46,39.21c0,1.72-.02,3.42-.08,5.12.06.07.01.09-.08.08v-.25c0-1.7-.03-3.43.04-5.12.02-.05.08-.06.13-.08.06.07.06.18,0,.25Z"/>
  <path class="cls-194" d="M46,44.41l-.1.13c-.91.1-1.8.08-2.67-.04.04-.08.03-.07.12-.09.69-.13,1.79.13,2.48,0,.05-.01.08-.02.08-.08.02-.07.05-.07.08,0,.06.02.06.05,0,.08Z"/>
  <path class="cls-31" d="M45.84,79.65c.07.58.07,1.18,0,1.76-.19-.51-.03-1.14-.08-1.68-.09-.09-2.21.13-2.52-.08.85.05,1.76-.06,2.6,0Z"/>
  <path class="cls-304" d="M45.92,82.16c-.15-.17-.08-.52-.08-.76,0-.59,0-1.18,0-1.76.03,0,.06,0,.08,0,0,.84,0,1.68,0,2.52Z"/>
  <path class="cls-175" d="M46.17,82.16s-.09.18-.08.25h-.08c0-.86.08-1.95,0-2.77.07.04.07.02.09.12.09.58-.02,1.48,0,2.11,0,.15.09.26.09.28Z"/>
  <path class="cls-262" d="M84.68,79.73v2.6h-2.27s.01-.09-.03-.14-.14-.02-.14-.03v-2.43h2.43Z"/>
  <path class="cls-256" d="M48.94,38.87s.01.07,0,.08c-.92.08-1.84.08-2.77,0-.03,0-.06,0-.08,0-.03.07-.05.07-.08,0,0-.03,0-.07,0-.08.98,0,1.96,0,2.94,0Z"/>
  <path class="cls-112" d="M73.1,35.85c0,7.45,0,14.9,0,22.35,0,.1-.11.03-.17.05l.08-22.32h-2.77c-.02-.15.19-.08.29-.08.85-.04,1.71.03,2.56,0Z"/>
  <path class="cls-40" d="M58.25,32.66c-.09.97-.09,1.95,0,2.94-.03.17-.09.27-.25.34-.53-.04-1.06-.08-1.58-.1v-.07s.09-.17.09-.17h1.35c.07-.9.14-1.93.07-2.88l.08-.14c-.85-.09-1.83-.12-2.68,0-.04.1-.13.17-.25.21v2.88s-.17.1-.17.1c-.96.1-1.99.18-2.94,0,0,0-.16-.06-.04-.08h2.89s0-3.19,0-3.19c.15-.04.3-.08.46-.09.38-.03,2.61-.05,2.82.05.08.03.13.13.17.21Z"/>
  <path class="cls-81" d="M48.94,41.64c.04.99.05,2,.04,3.03l2.89.08c.02-.07.05-.07.08,0,.02-.07.05-.07.08,0-.01.05-.03.1-.08.13-.14.07-2.99.09-3.11,0-.09-.06-.07-.16-.08-.25-.09-.74-.03-2.07,0-2.86,0-.21-.06-.27.17-.12Z"/>
  <path class="cls-248" d="M66.98,26.96c.06.02.05.05,0,.08l-11.75-.08c3.91,0,7.83,0,11.75,0Z"/>
  <path class="cls-117" d="M51.88,41.56s.06,0,.08,0v.08c.07.96.07,2.11,0,3.1h-.08c-.06-.01-.09-.04-.08-.08l-.17-.1v-2.66c-.82.01-1.65,0-2.48-.07l-.04-.2c-.07-.02-.07-.05,0-.08.9-.11,1.86-.07,2.77,0Z"/>
  <path class="cls-72" d="M54.98,41.56c-.87.09-2.03,0-2.94,0-.06-.02-.05-.05,0-.08.03-.22.1-.21.17,0,.83-.13,1.68-.22,2.52-.13v-5.31s.17-.1.17-.1c-.11-.12-.06-.15.08-.08.04,1.91.04,3.81,0,5.71Z"/>
  <path class="cls-146" d="M49.11,41.56v.08l.13.25c-.08.87-.08,1.79.02,2.64l2.45-.04.09.18s.07.04.08.08c-.98,0-1.96,0-2.94,0,.11-.93-.15-2.22,0-3.1,0-.03,0-.06,0-.08.06-.04.11-.05.17,0Z"/>
  <path class="cls-244" d="M55.15,35.77c.07.02.07.05,0,.08v5.62s-.05.07-.08.08c-.06-1.88-.09-3.78-.08-5.71-.07-.02-.07-.05,0-.08.05-.16.12-.16.17,0Z"/>
  <path class="cls-172" d="M45.33,44.66c-.64.08-1.29.07-1.93,0h-.17c.01-.05-.02-.13,0-.17.91,0,1.9.07,2.77-.08.02-.07.05-.07.08,0,0,0,.07.03.05.08-.13.25-.56.16-.8.17Z"/>
  <path class="cls-235" d="M51.88,41.47c-.02.06-.05.05-.08,0l.04-5.71.04,5.71Z"/>
  <path class="cls-93" d="M52.04,35.93c.15,0,.17.07.04.13l.04,5.35-.08.06v.08s-.06,0-.08,0c0-1.9.02-3.81,0-5.71.12-.07.17-.03.08.08Z"/>
  <path class="cls-73" d="M55.06,41.56s-.05,0-.08,0v-5.71l.08,5.71Z"/>
  <path class="cls-273" d="M46.09,44.41h-.08v-.08c-.04-1.7-.04-3.41,0-5.12,0-.08-.01-.18,0-.25.02,0,.05,0,.08,0-.06,1.81.07,3.64,0,5.45Z"/>
  <path class="cls-151" d="M56.41,35.77s.09.08.2.09c.45.02.98-.09,1.39.08l-2.85-.08v-.08c.33-.25.94-.27,1.26,0Z"/>
  <path class="cls-102" d="M52.04,41.72v3.02h-.08v-3.1h.08c.07.02.07.05,0,.08Z"/>
  <path class="cls-94" d="M70.08,61.36c-.14-.1-.08-.24-.09-.38-.05-.9,0-1.83.04-2.73l.04,3.11Z"/>
  <polygon class="cls-150" points="52.04 41.64 55.07 41.68 52.04 41.72 52.04 41.64"/>
  <path class="cls-41" d="M58.25,35.6c-.14-.09-.08-.32-.09-.46,0-.67,0-1.35,0-2.02,0-.14-.05-.37.09-.46-.1.9.13,2.08,0,2.94Z"/>
  <path class="cls-291" d="M51.79,41.47h.08v.08c-.89,0-1.89-.06-2.77,0-.06,0-.11,0-.17,0,.09-.14.32-.08.46-.09.8,0,1.6.01,2.39,0Z"/>
  <path class="cls-36" d="M48.94,38.96c-.07.11-.09.08-.2.09-.63.06-1.45,0-2.1,0-.14,0-.37.05-.46-.09.9-.07,1.86.05,2.77,0Z"/>
  <path class="cls-112" d="M67.06,29.73c-.26-.43.02-2.09-.08-2.68v-.08s.06,0,.08,0v2.77Z"/>
  <path class="cls-166" d="M55.06,29.73c0-.77-.01-1.54,0-2.31,0-.14-.05-.37.09-.46-.09.18.06,2.13,0,2.57-.02.13-.04.12-.09.2Z"/>
  <path class="cls-161" d="M45.33,44.66c-.57.14-1.36.14-1.93,0,.64,0,1.29.03,1.93,0Z"/>
  <path class="cls-179" d="M81.49,64.46v.08c-3.76-.13-7.56.1-11.33,0,0-.02,0-.06,0-.08,3.74-.12,7.6.17,11.33,0Z"/>
  <path class="cls-30" d="M73.1,82.16c-.13-1.42-.03-3.4,0-4.87v4.87Z"/>
  <polygon class="cls-114" points="84.85 79.4 84.77 79.4 84.77 73.94 84.85 79.4"/>
  <path class="cls-221" d="M76.21,73.27c-.02-.64,0-1.29,0-1.93.11.43.12,1.02.12,1.47,0,.14,0,.36-.12.46Z"/>
  <path class="cls-221" d="M76.96,69.16c.15-.12.38.28.12.33-.22.05-.19-.28-.12-.33Z"/>
  <path class="cls-147" d="M46,44.32h-.08l.08-5.12c-.07,1.7.05,3.42,0,5.12Z"/>
  <path class="cls-192" d="M55.32,32.58c.89-.09,1.8-.06,2.68,0,.08,0,.08.05.09.12.12.93-.09,2.11,0,3.07h-1.68c-.42-.02-.84,0-1.26,0-.06,0-.11,0-.17,0-.02.06-.05.06-.08,0v-3.19c.14,0,.28,0,.42,0Z"/>
  <path class="cls-50" d="M54.9,35.77s.06,0,.08,0v.08c-.06,0-.08.08-.08.08-.03.24-.17.23-.25,0-.86.05-1.76.11-2.6,0,0,0-.03-.09-.08-.08,0-.03,0-.06,0-.08.98.01,1.96-.01,2.94,0Z"/>
  <path class="cls-6" d="M58,32.58c-.89.03-1.79-.04-2.68,0,.09-.14.32-.08.46-.09.59,0,1.18,0,1.76,0,.14,0,.37-.05.46.09Z"/>
  <path class="cls-188" d="M49.11,41.64c.34.21,2.59-.01,2.69.08v2.94c-.42-.06-2.67.1-2.77,0,.05-1-.11-2.06.08-3.02Z"/>
  <path class="cls-188" d="M54.9,35.93v5.54c-.89,0-1.79,0-2.68,0l-.08-.02-.03-5.47c.86.03,1.71.02,2.55-.04.08,0,.18.01.25,0Z"/>
  <path class="cls-322" d="M54.64,35.93s-.13.08-.28.09c-.74.04-1.49-.04-2.23,0l.08,5.45h-.17v-5.54c.79.11,1.79-.08,2.6,0Z"/>
  <rect class="cls-139" x="55.06" y="32.66" width="2.94" height="3.02"/>
</svg>